<mxfile host="app.diagrams.net" agent="Mozilla/5.0 (Windows NT 10.0; Win64; x64) AppleWebKit/537.36 (KHTML, like Gecko) Chrome/129.0.0.0 Safari/537.36" scale="1" border="0" version="24.8.0">
  <diagram id="C5RBs43oDa-KdzZeNtuy" name="Page-1">
    <mxGraphModel dx="1518" dy="655" grid="1" gridSize="10" guides="1" tooltips="1" connect="1" arrows="1" fold="1" page="1" pageScale="1" pageWidth="827" pageHeight="1169" math="0" shadow="0">
      <root>
        <mxCell id="WIyWlLk6GJQsqaUBKTNV-0" />
        <mxCell id="WIyWlLk6GJQsqaUBKTNV-1" parent="WIyWlLk6GJQsqaUBKTNV-0" />
        <mxCell id="wwL8zT2_dl3lBCxODzwR-832" value="APLIKASI RESERVASI ROOM KARAOKE BERNADYA" style="text;strokeColor=#000000;align=center;fillColor=none;html=1;verticalAlign=middle;whiteSpace=wrap;rounded=0;" vertex="1" parent="WIyWlLk6GJQsqaUBKTNV-1">
          <mxGeometry x="870" y="30" width="545" height="50" as="geometry" />
        </mxCell>
        <mxCell id="wwL8zT2_dl3lBCxODzwR-999" value="" style="edgeStyle=orthogonalEdgeStyle;rounded=0;orthogonalLoop=1;jettySize=auto;html=1;" edge="1" parent="WIyWlLk6GJQsqaUBKTNV-1" source="wwL8zT2_dl3lBCxODzwR-834" target="wwL8zT2_dl3lBCxODzwR-840">
          <mxGeometry relative="1" as="geometry" />
        </mxCell>
        <mxCell id="wwL8zT2_dl3lBCxODzwR-834" value="star" style="strokeWidth=2;html=1;shape=mxgraph.flowchart.terminator;whiteSpace=wrap;strokeColor=#009999;fillColor=#CCFFFF;" vertex="1" parent="WIyWlLk6GJQsqaUBKTNV-1">
          <mxGeometry x="1100" y="100" width="100" height="60" as="geometry" />
        </mxCell>
        <mxCell id="wwL8zT2_dl3lBCxODzwR-836" value="" style="edgeStyle=orthogonalEdgeStyle;rounded=0;orthogonalLoop=1;jettySize=auto;html=1;" edge="1" parent="WIyWlLk6GJQsqaUBKTNV-1" source="wwL8zT2_dl3lBCxODzwR-837" target="wwL8zT2_dl3lBCxODzwR-839">
          <mxGeometry relative="1" as="geometry" />
        </mxCell>
        <mxCell id="wwL8zT2_dl3lBCxODzwR-837" value="&quot;SELAMAT DATANG DI APLIKASI RESERVASI ROOM KARAOKE BERNADYA&quot;" style="shape=parallelogram;html=1;strokeWidth=2;perimeter=parallelogramPerimeter;whiteSpace=wrap;rounded=1;arcSize=12;size=0.23;fillColor=#FFFFCC;" vertex="1" parent="WIyWlLk6GJQsqaUBKTNV-1">
          <mxGeometry x="841.02" y="520" width="620" height="60" as="geometry" />
        </mxCell>
        <mxCell id="wwL8zT2_dl3lBCxODzwR-838" value="" style="edgeStyle=orthogonalEdgeStyle;rounded=0;orthogonalLoop=1;jettySize=auto;html=1;entryX=0.5;entryY=0;entryDx=0;entryDy=0;" edge="1" parent="WIyWlLk6GJQsqaUBKTNV-1" source="wwL8zT2_dl3lBCxODzwR-839" target="wwL8zT2_dl3lBCxODzwR-846">
          <mxGeometry relative="1" as="geometry">
            <mxPoint x="463" y="750" as="targetPoint" />
          </mxGeometry>
        </mxCell>
        <mxCell id="wwL8zT2_dl3lBCxODzwR-839" value="&quot;SILAHKAN REGIST TERLEBIH DAHULU, JIKA BELUM PUNYA AKUN.&quot;" style="shape=parallelogram;html=1;strokeWidth=2;perimeter=parallelogramPerimeter;whiteSpace=wrap;rounded=1;arcSize=12;size=0.23;fillColor=#FFFFCC;" vertex="1" parent="WIyWlLk6GJQsqaUBKTNV-1">
          <mxGeometry x="880" y="660" width="543.08" height="60" as="geometry" />
        </mxCell>
        <mxCell id="wwL8zT2_dl3lBCxODzwR-1001" value="" style="edgeStyle=orthogonalEdgeStyle;rounded=0;orthogonalLoop=1;jettySize=auto;html=1;" edge="1" parent="WIyWlLk6GJQsqaUBKTNV-1" source="wwL8zT2_dl3lBCxODzwR-840" target="wwL8zT2_dl3lBCxODzwR-842">
          <mxGeometry relative="1" as="geometry" />
        </mxCell>
        <mxCell id="wwL8zT2_dl3lBCxODzwR-840" value="pengguna = {&quot;adminkaraoke&quot;: [&quot;nyanyiterus12&quot;, &quot;admin&quot;]}" style="rounded=1;whiteSpace=wrap;html=1;absoluteArcSize=1;arcSize=14;strokeWidth=2;fillColor=#CCFFCC;" vertex="1" parent="WIyWlLk6GJQsqaUBKTNV-1">
          <mxGeometry x="980" y="220" width="340" height="50" as="geometry" />
        </mxCell>
        <mxCell id="wwL8zT2_dl3lBCxODzwR-841" value="" style="edgeStyle=orthogonalEdgeStyle;rounded=0;orthogonalLoop=1;jettySize=auto;html=1;" edge="1" parent="WIyWlLk6GJQsqaUBKTNV-1" source="wwL8zT2_dl3lBCxODzwR-842" target="wwL8zT2_dl3lBCxODzwR-844">
          <mxGeometry relative="1" as="geometry" />
        </mxCell>
        <mxCell id="wwL8zT2_dl3lBCxODzwR-842" value="reservasi_karaoke = { }" style="rounded=1;whiteSpace=wrap;html=1;absoluteArcSize=1;arcSize=14;strokeWidth=2;fillColor=#CCFFCC;" vertex="1" parent="WIyWlLk6GJQsqaUBKTNV-1">
          <mxGeometry x="1078.97" y="330" width="142.05" height="50" as="geometry" />
        </mxCell>
        <mxCell id="wwL8zT2_dl3lBCxODzwR-843" value="" style="edgeStyle=orthogonalEdgeStyle;rounded=0;orthogonalLoop=1;jettySize=auto;html=1;" edge="1" parent="WIyWlLk6GJQsqaUBKTNV-1" source="wwL8zT2_dl3lBCxODzwR-844" target="wwL8zT2_dl3lBCxODzwR-837">
          <mxGeometry relative="1" as="geometry" />
        </mxCell>
        <mxCell id="wwL8zT2_dl3lBCxODzwR-844" value="reservasi_counter = 1" style="rounded=1;whiteSpace=wrap;html=1;absoluteArcSize=1;arcSize=14;strokeWidth=2;fillColor=#CCFFCC;" vertex="1" parent="WIyWlLk6GJQsqaUBKTNV-1">
          <mxGeometry x="1081.02" y="420" width="140" height="50" as="geometry" />
        </mxCell>
        <mxCell id="wwL8zT2_dl3lBCxODzwR-845" value="" style="edgeStyle=orthogonalEdgeStyle;rounded=0;orthogonalLoop=1;jettySize=auto;html=1;" edge="1" parent="WIyWlLk6GJQsqaUBKTNV-1" source="wwL8zT2_dl3lBCxODzwR-846" target="wwL8zT2_dl3lBCxODzwR-851">
          <mxGeometry relative="1" as="geometry">
            <Array as="points">
              <mxPoint x="413" y="900" />
            </Array>
          </mxGeometry>
        </mxCell>
        <mxCell id="wwL8zT2_dl3lBCxODzwR-846" value="Menu Regist&lt;div&gt;1. Registrasi&lt;/div&gt;&lt;div&gt;2.Login&lt;/div&gt;&lt;div&gt;3. Logout&lt;/div&gt;" style="shape=parallelogram;html=1;strokeWidth=2;perimeter=parallelogramPerimeter;whiteSpace=wrap;rounded=1;arcSize=12;size=0.23;align=center;fillColor=#FFFFCC;" vertex="1" parent="WIyWlLk6GJQsqaUBKTNV-1">
          <mxGeometry x="740" y="860" width="267.05" height="60" as="geometry" />
        </mxCell>
        <mxCell id="wwL8zT2_dl3lBCxODzwR-849" value="" style="edgeStyle=none;orthogonalLoop=1;jettySize=auto;html=1;rounded=0;" edge="1" parent="WIyWlLk6GJQsqaUBKTNV-1">
          <mxGeometry width="100" relative="1" as="geometry">
            <mxPoint x="954" y="913" as="sourcePoint" />
            <mxPoint x="1004" y="913" as="targetPoint" />
            <Array as="points" />
          </mxGeometry>
        </mxCell>
        <mxCell id="wwL8zT2_dl3lBCxODzwR-1018" value="" style="edgeStyle=orthogonalEdgeStyle;rounded=0;orthogonalLoop=1;jettySize=auto;html=1;" edge="1" parent="WIyWlLk6GJQsqaUBKTNV-1" source="wwL8zT2_dl3lBCxODzwR-851" target="wwL8zT2_dl3lBCxODzwR-854">
          <mxGeometry relative="1" as="geometry" />
        </mxCell>
        <mxCell id="wwL8zT2_dl3lBCxODzwR-851" value="pilih menu (1/2/3):" style="shape=parallelogram;html=1;strokeWidth=2;perimeter=parallelogramPerimeter;whiteSpace=wrap;rounded=1;arcSize=12;size=0.23;fillColor=#FFCCCC;" vertex="1" parent="WIyWlLk6GJQsqaUBKTNV-1">
          <mxGeometry x="330" y="961" width="166.87" height="60" as="geometry" />
        </mxCell>
        <mxCell id="wwL8zT2_dl3lBCxODzwR-852" value="" style="edgeStyle=none;orthogonalLoop=1;jettySize=auto;html=1;rounded=0;" edge="1" parent="WIyWlLk6GJQsqaUBKTNV-1">
          <mxGeometry width="100" relative="1" as="geometry">
            <mxPoint x="310" y="973" as="sourcePoint" />
            <mxPoint x="360" y="973" as="targetPoint" />
            <Array as="points" />
          </mxGeometry>
        </mxCell>
        <mxCell id="wwL8zT2_dl3lBCxODzwR-853" value="" style="edgeStyle=orthogonalEdgeStyle;rounded=0;orthogonalLoop=1;jettySize=auto;html=1;" edge="1" parent="WIyWlLk6GJQsqaUBKTNV-1" source="wwL8zT2_dl3lBCxODzwR-854" target="wwL8zT2_dl3lBCxODzwR-862">
          <mxGeometry relative="1" as="geometry" />
        </mxCell>
        <mxCell id="wwL8zT2_dl3lBCxODzwR-1099" value="TRUE" style="edgeLabel;html=1;align=center;verticalAlign=middle;resizable=0;points=[];" vertex="1" connectable="0" parent="wwL8zT2_dl3lBCxODzwR-853">
          <mxGeometry x="-0.299" y="-1" relative="1" as="geometry">
            <mxPoint x="1" as="offset" />
          </mxGeometry>
        </mxCell>
        <mxCell id="wwL8zT2_dl3lBCxODzwR-854" value="if pilihan == 1" style="strokeWidth=2;html=1;shape=mxgraph.flowchart.decision;whiteSpace=wrap;fillColor=#CCCCFF;" vertex="1" parent="WIyWlLk6GJQsqaUBKTNV-1">
          <mxGeometry x="364" y="1069" width="100" height="100" as="geometry" />
        </mxCell>
        <mxCell id="wwL8zT2_dl3lBCxODzwR-855" value="" style="edgeStyle=orthogonalEdgeStyle;rounded=0;orthogonalLoop=1;jettySize=auto;html=1;" edge="1" parent="WIyWlLk6GJQsqaUBKTNV-1" source="wwL8zT2_dl3lBCxODzwR-857" target="wwL8zT2_dl3lBCxODzwR-864">
          <mxGeometry relative="1" as="geometry" />
        </mxCell>
        <mxCell id="wwL8zT2_dl3lBCxODzwR-1101" value="TRUE" style="edgeLabel;html=1;align=center;verticalAlign=middle;resizable=0;points=[];" vertex="1" connectable="0" parent="wwL8zT2_dl3lBCxODzwR-855">
          <mxGeometry x="-0.0695" relative="1" as="geometry">
            <mxPoint as="offset" />
          </mxGeometry>
        </mxCell>
        <mxCell id="wwL8zT2_dl3lBCxODzwR-856" style="edgeStyle=orthogonalEdgeStyle;rounded=0;orthogonalLoop=1;jettySize=auto;html=1;" edge="1" parent="WIyWlLk6GJQsqaUBKTNV-1" source="wwL8zT2_dl3lBCxODzwR-857" target="wwL8zT2_dl3lBCxODzwR-860">
          <mxGeometry relative="1" as="geometry" />
        </mxCell>
        <mxCell id="wwL8zT2_dl3lBCxODzwR-1102" value="FALSE" style="edgeLabel;html=1;align=center;verticalAlign=middle;resizable=0;points=[];" vertex="1" connectable="0" parent="wwL8zT2_dl3lBCxODzwR-856">
          <mxGeometry x="-0.9485" y="1" relative="1" as="geometry">
            <mxPoint as="offset" />
          </mxGeometry>
        </mxCell>
        <mxCell id="wwL8zT2_dl3lBCxODzwR-857" value="elif pilihan == 2" style="strokeWidth=2;html=1;shape=mxgraph.flowchart.decision;whiteSpace=wrap;fillColor=#CCCCFF;" vertex="1" parent="WIyWlLk6GJQsqaUBKTNV-1">
          <mxGeometry x="364" y="1730" width="100" height="100" as="geometry" />
        </mxCell>
        <mxCell id="wwL8zT2_dl3lBCxODzwR-858" value="" style="edgeStyle=orthogonalEdgeStyle;rounded=0;orthogonalLoop=1;jettySize=auto;html=1;" edge="1" parent="WIyWlLk6GJQsqaUBKTNV-1" source="wwL8zT2_dl3lBCxODzwR-860" target="wwL8zT2_dl3lBCxODzwR-966">
          <mxGeometry relative="1" as="geometry" />
        </mxCell>
        <mxCell id="wwL8zT2_dl3lBCxODzwR-1103" value="TRUE" style="edgeLabel;html=1;align=center;verticalAlign=middle;resizable=0;points=[];" vertex="1" connectable="0" parent="wwL8zT2_dl3lBCxODzwR-858">
          <mxGeometry x="0.1225" y="-1" relative="1" as="geometry">
            <mxPoint as="offset" />
          </mxGeometry>
        </mxCell>
        <mxCell id="wwL8zT2_dl3lBCxODzwR-1007" value="" style="edgeStyle=orthogonalEdgeStyle;rounded=0;orthogonalLoop=1;jettySize=auto;html=1;" edge="1" parent="WIyWlLk6GJQsqaUBKTNV-1" source="wwL8zT2_dl3lBCxODzwR-860" target="wwL8zT2_dl3lBCxODzwR-1003">
          <mxGeometry relative="1" as="geometry" />
        </mxCell>
        <mxCell id="wwL8zT2_dl3lBCxODzwR-1104" value="FALSE" style="edgeLabel;html=1;align=center;verticalAlign=middle;resizable=0;points=[];" vertex="1" connectable="0" parent="wwL8zT2_dl3lBCxODzwR-1007">
          <mxGeometry x="-0.0237" y="1" relative="1" as="geometry">
            <mxPoint y="-1" as="offset" />
          </mxGeometry>
        </mxCell>
        <mxCell id="wwL8zT2_dl3lBCxODzwR-860" value="elif pilihan == 3" style="strokeWidth=2;html=1;shape=mxgraph.flowchart.decision;whiteSpace=wrap;fillColor=#CCCCFF;" vertex="1" parent="WIyWlLk6GJQsqaUBKTNV-1">
          <mxGeometry x="364" y="3461" width="100" height="100" as="geometry" />
        </mxCell>
        <mxCell id="wwL8zT2_dl3lBCxODzwR-861" value="" style="edgeStyle=orthogonalEdgeStyle;rounded=0;orthogonalLoop=1;jettySize=auto;html=1;" edge="1" parent="WIyWlLk6GJQsqaUBKTNV-1" source="wwL8zT2_dl3lBCxODzwR-862" target="wwL8zT2_dl3lBCxODzwR-866">
          <mxGeometry relative="1" as="geometry" />
        </mxCell>
        <mxCell id="wwL8zT2_dl3lBCxODzwR-862" value="&quot;masukkan username: &quot;" style="shape=parallelogram;html=1;strokeWidth=2;perimeter=parallelogramPerimeter;whiteSpace=wrap;rounded=1;arcSize=12;size=0.23;fillColor=#FFCCCC;" vertex="1" parent="WIyWlLk6GJQsqaUBKTNV-1">
          <mxGeometry x="827" y="1089" width="176.02" height="60" as="geometry" />
        </mxCell>
        <mxCell id="wwL8zT2_dl3lBCxODzwR-863" value="" style="edgeStyle=orthogonalEdgeStyle;rounded=0;orthogonalLoop=1;jettySize=auto;html=1;" edge="1" parent="WIyWlLk6GJQsqaUBKTNV-1" source="wwL8zT2_dl3lBCxODzwR-864" target="wwL8zT2_dl3lBCxODzwR-891">
          <mxGeometry relative="1" as="geometry" />
        </mxCell>
        <mxCell id="wwL8zT2_dl3lBCxODzwR-864" value="&quot;username: &quot;" style="shape=parallelogram;html=1;strokeWidth=2;perimeter=parallelogramPerimeter;whiteSpace=wrap;rounded=1;arcSize=12;size=0.23;fillColor=#FFCCCC;" vertex="1" parent="WIyWlLk6GJQsqaUBKTNV-1">
          <mxGeometry x="546.3900000000001" y="1755" width="120" height="50" as="geometry" />
        </mxCell>
        <mxCell id="wwL8zT2_dl3lBCxODzwR-1022" value="" style="edgeStyle=orthogonalEdgeStyle;rounded=0;orthogonalLoop=1;jettySize=auto;html=1;" edge="1" parent="WIyWlLk6GJQsqaUBKTNV-1" source="wwL8zT2_dl3lBCxODzwR-866" target="wwL8zT2_dl3lBCxODzwR-1020">
          <mxGeometry relative="1" as="geometry" />
        </mxCell>
        <mxCell id="wwL8zT2_dl3lBCxODzwR-866" value="&quot;masukkan password: &quot;" style="shape=parallelogram;html=1;strokeWidth=2;perimeter=parallelogramPerimeter;whiteSpace=wrap;rounded=1;arcSize=12;size=0.23;fillColor=#FFCCCC;" vertex="1" parent="WIyWlLk6GJQsqaUBKTNV-1">
          <mxGeometry x="825" y="1300" width="180" height="60" as="geometry" />
        </mxCell>
        <mxCell id="wwL8zT2_dl3lBCxODzwR-874" value="" style="edgeStyle=orthogonalEdgeStyle;rounded=0;orthogonalLoop=1;jettySize=auto;html=1;" edge="1" parent="WIyWlLk6GJQsqaUBKTNV-1">
          <mxGeometry relative="1" as="geometry">
            <mxPoint x="828.5" y="1310" as="sourcePoint" />
            <mxPoint x="860.48" y="1310" as="targetPoint" />
            <Array as="points">
              <mxPoint x="860.5" y="1310" />
            </Array>
          </mxGeometry>
        </mxCell>
        <mxCell id="wwL8zT2_dl3lBCxODzwR-875" value="" style="edgeStyle=orthogonalEdgeStyle;rounded=0;orthogonalLoop=1;jettySize=auto;html=1;" edge="1" parent="WIyWlLk6GJQsqaUBKTNV-1">
          <mxGeometry relative="1" as="geometry">
            <mxPoint x="1058.02" y="1450" as="sourcePoint" />
            <mxPoint x="1090" y="1450" as="targetPoint" />
            <Array as="points">
              <mxPoint x="1059" y="1450" />
              <mxPoint x="1059" y="1450" />
            </Array>
          </mxGeometry>
        </mxCell>
        <mxCell id="wwL8zT2_dl3lBCxODzwR-876" value="" style="edgeStyle=orthogonalEdgeStyle;rounded=0;orthogonalLoop=1;jettySize=auto;html=1;" edge="1" parent="WIyWlLk6GJQsqaUBKTNV-1">
          <mxGeometry relative="1" as="geometry">
            <mxPoint x="827.03" y="1100" as="sourcePoint" />
            <mxPoint x="859.01" y="1100" as="targetPoint" />
            <Array as="points">
              <mxPoint x="828.01" y="1100" />
              <mxPoint x="828.01" y="1100" />
            </Array>
          </mxGeometry>
        </mxCell>
        <mxCell id="wwL8zT2_dl3lBCxODzwR-886" style="edgeStyle=orthogonalEdgeStyle;rounded=0;orthogonalLoop=1;jettySize=auto;html=1;entryX=0.5;entryY=0;entryDx=0;entryDy=0;entryPerimeter=0;" edge="1" parent="WIyWlLk6GJQsqaUBKTNV-1" source="wwL8zT2_dl3lBCxODzwR-854" target="wwL8zT2_dl3lBCxODzwR-857">
          <mxGeometry relative="1" as="geometry" />
        </mxCell>
        <mxCell id="wwL8zT2_dl3lBCxODzwR-1100" value="FALSE" style="edgeLabel;html=1;align=center;verticalAlign=middle;resizable=0;points=[];" vertex="1" connectable="0" parent="wwL8zT2_dl3lBCxODzwR-886">
          <mxGeometry x="-0.4109" y="-1" relative="1" as="geometry">
            <mxPoint as="offset" />
          </mxGeometry>
        </mxCell>
        <mxCell id="wwL8zT2_dl3lBCxODzwR-889" value="" style="endArrow=classic;html=1;rounded=0;fontStyle=1" edge="1" parent="WIyWlLk6GJQsqaUBKTNV-1">
          <mxGeometry width="50" height="50" relative="1" as="geometry">
            <mxPoint x="532" y="1763" as="sourcePoint" />
            <mxPoint x="569" y="1763" as="targetPoint" />
          </mxGeometry>
        </mxCell>
        <mxCell id="wwL8zT2_dl3lBCxODzwR-890" style="edgeStyle=orthogonalEdgeStyle;rounded=0;orthogonalLoop=1;jettySize=auto;html=1;" edge="1" parent="WIyWlLk6GJQsqaUBKTNV-1">
          <mxGeometry relative="1" as="geometry">
            <mxPoint x="994" y="1870" as="targetPoint" />
            <mxPoint x="795.2" y="1780" as="sourcePoint" />
            <Array as="points">
              <mxPoint x="994" y="1780" />
            </Array>
          </mxGeometry>
        </mxCell>
        <mxCell id="wwL8zT2_dl3lBCxODzwR-891" value="&quot;password: &quot;" style="shape=parallelogram;html=1;strokeWidth=2;perimeter=parallelogramPerimeter;whiteSpace=wrap;rounded=1;arcSize=12;size=0.23;fillColor=#FFCCCC;" vertex="1" parent="WIyWlLk6GJQsqaUBKTNV-1">
          <mxGeometry x="690.0000000000001" y="1755" width="120" height="50" as="geometry" />
        </mxCell>
        <mxCell id="wwL8zT2_dl3lBCxODzwR-892" value="" style="endArrow=classic;html=1;rounded=0;" edge="1" parent="WIyWlLk6GJQsqaUBKTNV-1">
          <mxGeometry width="50" height="50" relative="1" as="geometry">
            <mxPoint x="675" y="1764" as="sourcePoint" />
            <mxPoint x="712" y="1764" as="targetPoint" />
          </mxGeometry>
        </mxCell>
        <mxCell id="wwL8zT2_dl3lBCxODzwR-893" style="edgeStyle=orthogonalEdgeStyle;rounded=0;orthogonalLoop=1;jettySize=auto;html=1;" edge="1" parent="WIyWlLk6GJQsqaUBKTNV-1" source="wwL8zT2_dl3lBCxODzwR-894">
          <mxGeometry relative="1" as="geometry">
            <mxPoint x="1220" y="2020" as="targetPoint" />
          </mxGeometry>
        </mxCell>
        <mxCell id="wwL8zT2_dl3lBCxODzwR-1042" value="TRUE" style="edgeLabel;html=1;align=center;verticalAlign=middle;resizable=0;points=[];" vertex="1" connectable="0" parent="wwL8zT2_dl3lBCxODzwR-893">
          <mxGeometry x="-0.4544" y="1" relative="1" as="geometry">
            <mxPoint as="offset" />
          </mxGeometry>
        </mxCell>
        <mxCell id="wwL8zT2_dl3lBCxODzwR-894" value="if username == &quot;adminkaraoke&quot; and password == &quot;nyanyiterus12&quot;" style="strokeWidth=2;html=1;shape=mxgraph.flowchart.decision;whiteSpace=wrap;fillColor=#CCCCFF;" vertex="1" parent="WIyWlLk6GJQsqaUBKTNV-1">
          <mxGeometry x="880" y="1870" width="230" height="130" as="geometry" />
        </mxCell>
        <mxCell id="wwL8zT2_dl3lBCxODzwR-895" value="" style="edgeStyle=orthogonalEdgeStyle;rounded=0;orthogonalLoop=1;jettySize=auto;html=1;" edge="1" parent="WIyWlLk6GJQsqaUBKTNV-1" source="wwL8zT2_dl3lBCxODzwR-896" target="wwL8zT2_dl3lBCxODzwR-918">
          <mxGeometry relative="1" as="geometry" />
        </mxCell>
        <mxCell id="wwL8zT2_dl3lBCxODzwR-896" value="&quot;pilih menu pelanggan(1/2/3): &quot;" style="shape=parallelogram;html=1;strokeWidth=2;perimeter=parallelogramPerimeter;whiteSpace=wrap;rounded=1;arcSize=12;size=0.23;fillColor=#FFCCCC;" vertex="1" parent="WIyWlLk6GJQsqaUBKTNV-1">
          <mxGeometry x="457.5" y="2170" width="235.5" height="30" as="geometry" />
        </mxCell>
        <mxCell id="wwL8zT2_dl3lBCxODzwR-897" value="" style="edgeStyle=orthogonalEdgeStyle;rounded=0;orthogonalLoop=1;jettySize=auto;html=1;" edge="1" parent="WIyWlLk6GJQsqaUBKTNV-1" source="wwL8zT2_dl3lBCxODzwR-898" target="wwL8zT2_dl3lBCxODzwR-905">
          <mxGeometry relative="1" as="geometry" />
        </mxCell>
        <mxCell id="wwL8zT2_dl3lBCxODzwR-898" value="&quot;pilih menu admin(1/2/3/4/5): &quot;" style="shape=parallelogram;html=1;strokeWidth=2;perimeter=parallelogramPerimeter;whiteSpace=wrap;rounded=1;arcSize=12;size=0.23;fillColor=#FFCCCC;" vertex="1" parent="WIyWlLk6GJQsqaUBKTNV-1">
          <mxGeometry x="1090" y="2170" width="230" height="30" as="geometry" />
        </mxCell>
        <mxCell id="wwL8zT2_dl3lBCxODzwR-899" value="" style="edgeStyle=orthogonalEdgeStyle;rounded=0;orthogonalLoop=1;jettySize=auto;html=1;" edge="1" parent="WIyWlLk6GJQsqaUBKTNV-1" source="wwL8zT2_dl3lBCxODzwR-900" target="wwL8zT2_dl3lBCxODzwR-896">
          <mxGeometry relative="1" as="geometry" />
        </mxCell>
        <mxCell id="wwL8zT2_dl3lBCxODzwR-900" value="Menu pelanggan:&lt;div&gt;1. pesan reservasi&lt;/div&gt;&lt;div&gt;2. lihat daftar reservasi&lt;/div&gt;&lt;div&gt;3. logout&lt;/div&gt;" style="shape=parallelogram;html=1;strokeWidth=2;perimeter=parallelogramPerimeter;whiteSpace=wrap;rounded=1;arcSize=12;size=0.23;fillColor=#FFFFCC;" vertex="1" parent="WIyWlLk6GJQsqaUBKTNV-1">
          <mxGeometry x="480.25" y="2025" width="190" height="90" as="geometry" />
        </mxCell>
        <mxCell id="wwL8zT2_dl3lBCxODzwR-901" value="" style="edgeStyle=orthogonalEdgeStyle;rounded=0;orthogonalLoop=1;jettySize=auto;html=1;" edge="1" parent="WIyWlLk6GJQsqaUBKTNV-1" source="wwL8zT2_dl3lBCxODzwR-902" target="wwL8zT2_dl3lBCxODzwR-898">
          <mxGeometry relative="1" as="geometry" />
        </mxCell>
        <mxCell id="wwL8zT2_dl3lBCxODzwR-902" value="menu admin:&lt;div&gt;1. tambah reservasi&lt;/div&gt;&lt;div&gt;2. lihat daftar reservasi&lt;/div&gt;&lt;div&gt;3. update status resrvasi&lt;/div&gt;&lt;div&gt;4. hapus reservasi&lt;/div&gt;&lt;div&gt;5. logout&lt;/div&gt;" style="shape=parallelogram;html=1;strokeWidth=2;perimeter=parallelogramPerimeter;whiteSpace=wrap;rounded=1;arcSize=12;size=0.23;fillColor=#FFFFCC;" vertex="1" parent="WIyWlLk6GJQsqaUBKTNV-1">
          <mxGeometry x="1090" y="2020" width="230" height="100" as="geometry" />
        </mxCell>
        <mxCell id="wwL8zT2_dl3lBCxODzwR-904" value="" style="edgeStyle=orthogonalEdgeStyle;rounded=0;orthogonalLoop=1;jettySize=auto;html=1;" edge="1" parent="WIyWlLk6GJQsqaUBKTNV-1" source="wwL8zT2_dl3lBCxODzwR-905" target="wwL8zT2_dl3lBCxODzwR-907">
          <mxGeometry relative="1" as="geometry" />
        </mxCell>
        <mxCell id="wwL8zT2_dl3lBCxODzwR-1122" value="FALSE" style="edgeLabel;html=1;align=center;verticalAlign=middle;resizable=0;points=[];" vertex="1" connectable="0" parent="wwL8zT2_dl3lBCxODzwR-904">
          <mxGeometry x="-0.8514" y="2" relative="1" as="geometry">
            <mxPoint as="offset" />
          </mxGeometry>
        </mxCell>
        <mxCell id="wwL8zT2_dl3lBCxODzwR-1088" style="edgeStyle=orthogonalEdgeStyle;rounded=0;orthogonalLoop=1;jettySize=auto;html=1;" edge="1" parent="WIyWlLk6GJQsqaUBKTNV-1" source="wwL8zT2_dl3lBCxODzwR-905" target="wwL8zT2_dl3lBCxODzwR-1067">
          <mxGeometry relative="1" as="geometry" />
        </mxCell>
        <mxCell id="wwL8zT2_dl3lBCxODzwR-1121" value="TRUE" style="edgeLabel;html=1;align=center;verticalAlign=middle;resizable=0;points=[];" vertex="1" connectable="0" parent="wwL8zT2_dl3lBCxODzwR-1088">
          <mxGeometry x="-0.4704" y="2" relative="1" as="geometry">
            <mxPoint x="-1" as="offset" />
          </mxGeometry>
        </mxCell>
        <mxCell id="wwL8zT2_dl3lBCxODzwR-905" value="if pilihan_admin == 1" style="strokeWidth=2;html=1;shape=mxgraph.flowchart.decision;whiteSpace=wrap;fillColor=#CCCCFF;" vertex="1" parent="WIyWlLk6GJQsqaUBKTNV-1">
          <mxGeometry x="1132.5" y="2245" width="145" height="100" as="geometry" />
        </mxCell>
        <mxCell id="wwL8zT2_dl3lBCxODzwR-906" value="" style="edgeStyle=orthogonalEdgeStyle;rounded=0;orthogonalLoop=1;jettySize=auto;html=1;" edge="1" parent="WIyWlLk6GJQsqaUBKTNV-1" source="wwL8zT2_dl3lBCxODzwR-907" target="wwL8zT2_dl3lBCxODzwR-932">
          <mxGeometry relative="1" as="geometry" />
        </mxCell>
        <mxCell id="wwL8zT2_dl3lBCxODzwR-1140" value="TRUE" style="edgeLabel;html=1;align=center;verticalAlign=middle;resizable=0;points=[];" vertex="1" connectable="0" parent="wwL8zT2_dl3lBCxODzwR-906">
          <mxGeometry x="-0.2715" y="-2" relative="1" as="geometry">
            <mxPoint as="offset" />
          </mxGeometry>
        </mxCell>
        <mxCell id="wwL8zT2_dl3lBCxODzwR-907" value="elif pilihan_admin == 2" style="strokeWidth=2;html=1;shape=mxgraph.flowchart.decision;whiteSpace=wrap;fillColor=#CCCCFF;" vertex="1" parent="WIyWlLk6GJQsqaUBKTNV-1">
          <mxGeometry x="1132.5" y="2715" width="145" height="100" as="geometry" />
        </mxCell>
        <mxCell id="wwL8zT2_dl3lBCxODzwR-909" value="" style="edgeStyle=orthogonalEdgeStyle;rounded=0;orthogonalLoop=1;jettySize=auto;html=1;" edge="1" parent="WIyWlLk6GJQsqaUBKTNV-1" source="wwL8zT2_dl3lBCxODzwR-910" target="wwL8zT2_dl3lBCxODzwR-913">
          <mxGeometry relative="1" as="geometry" />
        </mxCell>
        <mxCell id="wwL8zT2_dl3lBCxODzwR-1112" value="FALSE" style="edgeLabel;html=1;align=center;verticalAlign=middle;resizable=0;points=[];" vertex="1" connectable="0" parent="wwL8zT2_dl3lBCxODzwR-909">
          <mxGeometry x="-0.2071" y="-2" relative="1" as="geometry">
            <mxPoint as="offset" />
          </mxGeometry>
        </mxCell>
        <mxCell id="wwL8zT2_dl3lBCxODzwR-1135" value="" style="edgeStyle=orthogonalEdgeStyle;rounded=0;orthogonalLoop=1;jettySize=auto;html=1;" edge="1" parent="WIyWlLk6GJQsqaUBKTNV-1" source="wwL8zT2_dl3lBCxODzwR-910" target="wwL8zT2_dl3lBCxODzwR-1125">
          <mxGeometry relative="1" as="geometry" />
        </mxCell>
        <mxCell id="wwL8zT2_dl3lBCxODzwR-1138" value="TRUE" style="edgeLabel;html=1;align=center;verticalAlign=middle;resizable=0;points=[];" vertex="1" connectable="0" parent="wwL8zT2_dl3lBCxODzwR-1135">
          <mxGeometry x="-0.4313" relative="1" as="geometry">
            <mxPoint as="offset" />
          </mxGeometry>
        </mxCell>
        <mxCell id="wwL8zT2_dl3lBCxODzwR-910" value="elif pilihan_admin == 3" style="strokeWidth=2;html=1;shape=mxgraph.flowchart.decision;whiteSpace=wrap;fillColor=#CCCCFF;" vertex="1" parent="WIyWlLk6GJQsqaUBKTNV-1">
          <mxGeometry x="1132.5" y="2890" width="145" height="100" as="geometry" />
        </mxCell>
        <mxCell id="wwL8zT2_dl3lBCxODzwR-912" value="" style="edgeStyle=orthogonalEdgeStyle;rounded=0;orthogonalLoop=1;jettySize=auto;html=1;" edge="1" parent="WIyWlLk6GJQsqaUBKTNV-1" source="wwL8zT2_dl3lBCxODzwR-913" target="wwL8zT2_dl3lBCxODzwR-915">
          <mxGeometry relative="1" as="geometry" />
        </mxCell>
        <mxCell id="wwL8zT2_dl3lBCxODzwR-1109" value="FALSE" style="edgeLabel;html=1;align=center;verticalAlign=middle;resizable=0;points=[];" vertex="1" connectable="0" parent="wwL8zT2_dl3lBCxODzwR-912">
          <mxGeometry x="-0.3944" relative="1" as="geometry">
            <mxPoint as="offset" />
          </mxGeometry>
        </mxCell>
        <mxCell id="wwL8zT2_dl3lBCxODzwR-1143" value="" style="edgeStyle=orthogonalEdgeStyle;rounded=0;orthogonalLoop=1;jettySize=auto;html=1;" edge="1" parent="WIyWlLk6GJQsqaUBKTNV-1" source="wwL8zT2_dl3lBCxODzwR-913" target="wwL8zT2_dl3lBCxODzwR-1142">
          <mxGeometry relative="1" as="geometry" />
        </mxCell>
        <mxCell id="wwL8zT2_dl3lBCxODzwR-1145" value="TRUE" style="edgeLabel;html=1;align=center;verticalAlign=middle;resizable=0;points=[];" vertex="1" connectable="0" parent="wwL8zT2_dl3lBCxODzwR-1143">
          <mxGeometry x="-0.0282" relative="1" as="geometry">
            <mxPoint as="offset" />
          </mxGeometry>
        </mxCell>
        <mxCell id="wwL8zT2_dl3lBCxODzwR-913" value="elif pilihan_admin == 4" style="strokeWidth=2;html=1;shape=mxgraph.flowchart.decision;whiteSpace=wrap;fillColor=#CCCCFF;" vertex="1" parent="WIyWlLk6GJQsqaUBKTNV-1">
          <mxGeometry x="1132.5" y="3130" width="145" height="100" as="geometry" />
        </mxCell>
        <mxCell id="wwL8zT2_dl3lBCxODzwR-914" value="" style="edgeStyle=orthogonalEdgeStyle;rounded=0;orthogonalLoop=1;jettySize=auto;html=1;" edge="1" parent="WIyWlLk6GJQsqaUBKTNV-1" source="wwL8zT2_dl3lBCxODzwR-915" target="wwL8zT2_dl3lBCxODzwR-945">
          <mxGeometry relative="1" as="geometry" />
        </mxCell>
        <mxCell id="wwL8zT2_dl3lBCxODzwR-1107" value="TRUE" style="edgeLabel;html=1;align=center;verticalAlign=middle;resizable=0;points=[];" vertex="1" connectable="0" parent="wwL8zT2_dl3lBCxODzwR-914">
          <mxGeometry x="0.2067" relative="1" as="geometry">
            <mxPoint x="1" as="offset" />
          </mxGeometry>
        </mxCell>
        <mxCell id="wwL8zT2_dl3lBCxODzwR-1030" value="" style="edgeStyle=orthogonalEdgeStyle;rounded=0;orthogonalLoop=1;jettySize=auto;html=1;" edge="1" parent="WIyWlLk6GJQsqaUBKTNV-1" source="wwL8zT2_dl3lBCxODzwR-915" target="wwL8zT2_dl3lBCxODzwR-1027">
          <mxGeometry relative="1" as="geometry" />
        </mxCell>
        <mxCell id="wwL8zT2_dl3lBCxODzwR-1108" value="FALSE" style="edgeLabel;html=1;align=center;verticalAlign=middle;resizable=0;points=[];" vertex="1" connectable="0" parent="wwL8zT2_dl3lBCxODzwR-1030">
          <mxGeometry x="-0.3881" y="2" relative="1" as="geometry">
            <mxPoint as="offset" />
          </mxGeometry>
        </mxCell>
        <mxCell id="wwL8zT2_dl3lBCxODzwR-915" value="elif pilihan_admin == 5" style="strokeWidth=2;html=1;shape=mxgraph.flowchart.decision;whiteSpace=wrap;fillColor=#CCCCFF;" vertex="1" parent="WIyWlLk6GJQsqaUBKTNV-1">
          <mxGeometry x="1132.5" y="3320" width="145" height="100" as="geometry" />
        </mxCell>
        <mxCell id="wwL8zT2_dl3lBCxODzwR-916" value="" style="edgeStyle=orthogonalEdgeStyle;rounded=0;orthogonalLoop=1;jettySize=auto;html=1;" edge="1" parent="WIyWlLk6GJQsqaUBKTNV-1" source="wwL8zT2_dl3lBCxODzwR-918" target="wwL8zT2_dl3lBCxODzwR-948">
          <mxGeometry relative="1" as="geometry" />
        </mxCell>
        <mxCell id="wwL8zT2_dl3lBCxODzwR-1120" value="TRUE" style="edgeLabel;html=1;align=center;verticalAlign=middle;resizable=0;points=[];" vertex="1" connectable="0" parent="wwL8zT2_dl3lBCxODzwR-916">
          <mxGeometry x="-0.3653" y="-2" relative="1" as="geometry">
            <mxPoint as="offset" />
          </mxGeometry>
        </mxCell>
        <mxCell id="wwL8zT2_dl3lBCxODzwR-917" value="" style="edgeStyle=orthogonalEdgeStyle;rounded=0;orthogonalLoop=1;jettySize=auto;html=1;" edge="1" parent="WIyWlLk6GJQsqaUBKTNV-1" source="wwL8zT2_dl3lBCxODzwR-918" target="wwL8zT2_dl3lBCxODzwR-961">
          <mxGeometry relative="1" as="geometry" />
        </mxCell>
        <mxCell id="wwL8zT2_dl3lBCxODzwR-1119" value="FALSE" style="edgeLabel;html=1;align=center;verticalAlign=middle;resizable=0;points=[];" vertex="1" connectable="0" parent="wwL8zT2_dl3lBCxODzwR-917">
          <mxGeometry x="-0.7893" y="2" relative="1" as="geometry">
            <mxPoint as="offset" />
          </mxGeometry>
        </mxCell>
        <mxCell id="wwL8zT2_dl3lBCxODzwR-918" value="if pilihan_pelanggan == 1" style="strokeWidth=2;html=1;shape=mxgraph.flowchart.decision;whiteSpace=wrap;fillColor=#CCCCFF;" vertex="1" parent="WIyWlLk6GJQsqaUBKTNV-1">
          <mxGeometry x="490" y="2245" width="170.51" height="100" as="geometry" />
        </mxCell>
        <mxCell id="wwL8zT2_dl3lBCxODzwR-1093" style="edgeStyle=orthogonalEdgeStyle;rounded=0;orthogonalLoop=1;jettySize=auto;html=1;" edge="1" parent="WIyWlLk6GJQsqaUBKTNV-1" source="wwL8zT2_dl3lBCxODzwR-932" target="wwL8zT2_dl3lBCxODzwR-902">
          <mxGeometry relative="1" as="geometry">
            <mxPoint x="1850" y="2080" as="targetPoint" />
            <Array as="points">
              <mxPoint x="1870" y="2765" />
              <mxPoint x="1870" y="2080" />
            </Array>
          </mxGeometry>
        </mxCell>
        <mxCell id="wwL8zT2_dl3lBCxODzwR-932" value="&quot;Nama tamu: {reservasi[&#39;nama_tamu&#39;]}&lt;div&gt;Tanggal: {reservasi[&#39;tanggal&#39;]}&lt;/div&gt;&lt;div&gt;jam: {reservasi[&#39;jam&#39;]}&lt;/div&gt;&lt;div&gt;durasi: {reservasi[&#39;durasi&#39;]}&lt;/div&gt;&lt;div&gt;room_size: {reservasi[&#39;room_size&#39;]}&lt;/div&gt;&lt;div&gt;status: {[&#39;status&#39;]}&lt;/div&gt;" style="shape=parallelogram;html=1;strokeWidth=2;perimeter=parallelogramPerimeter;whiteSpace=wrap;rounded=1;arcSize=12;size=0.23;fillColor=#FFFFCC;" vertex="1" parent="WIyWlLk6GJQsqaUBKTNV-1">
          <mxGeometry x="1330" y="2710" width="350" height="110" as="geometry" />
        </mxCell>
        <mxCell id="wwL8zT2_dl3lBCxODzwR-933" style="edgeStyle=orthogonalEdgeStyle;rounded=0;orthogonalLoop=1;jettySize=auto;html=1;entryX=0.5;entryY=0;entryDx=0;entryDy=0;entryPerimeter=0;" edge="1" parent="WIyWlLk6GJQsqaUBKTNV-1" source="wwL8zT2_dl3lBCxODzwR-907" target="wwL8zT2_dl3lBCxODzwR-910">
          <mxGeometry relative="1" as="geometry" />
        </mxCell>
        <mxCell id="wwL8zT2_dl3lBCxODzwR-1139" value="FALSE" style="edgeLabel;html=1;align=center;verticalAlign=middle;resizable=0;points=[];" vertex="1" connectable="0" parent="wwL8zT2_dl3lBCxODzwR-933">
          <mxGeometry x="-0.1771" y="-1" relative="1" as="geometry">
            <mxPoint as="offset" />
          </mxGeometry>
        </mxCell>
        <mxCell id="wwL8zT2_dl3lBCxODzwR-938" value="" style="edgeStyle=orthogonalEdgeStyle;rounded=0;orthogonalLoop=1;jettySize=auto;html=1;" edge="1" parent="WIyWlLk6GJQsqaUBKTNV-1" source="wwL8zT2_dl3lBCxODzwR-939" target="wwL8zT2_dl3lBCxODzwR-941">
          <mxGeometry relative="1" as="geometry" />
        </mxCell>
        <mxCell id="wwL8zT2_dl3lBCxODzwR-939" value="&quot;pilih nomer reservasi yang ingin dihapus: &quot;" style="shape=parallelogram;html=1;strokeWidth=2;perimeter=parallelogramPerimeter;whiteSpace=wrap;rounded=1;arcSize=12;size=0.23;fillColor=#FFCCCC;" vertex="1" parent="WIyWlLk6GJQsqaUBKTNV-1">
          <mxGeometry x="1539" y="3160" width="340" height="40" as="geometry" />
        </mxCell>
        <mxCell id="wwL8zT2_dl3lBCxODzwR-1147" style="edgeStyle=orthogonalEdgeStyle;rounded=0;orthogonalLoop=1;jettySize=auto;html=1;" edge="1" parent="WIyWlLk6GJQsqaUBKTNV-1" source="wwL8zT2_dl3lBCxODzwR-941" target="wwL8zT2_dl3lBCxODzwR-902">
          <mxGeometry relative="1" as="geometry">
            <mxPoint x="1510" y="2060" as="targetPoint" />
            <Array as="points">
              <mxPoint x="1950" y="3270" />
              <mxPoint x="1950" y="2060" />
            </Array>
          </mxGeometry>
        </mxCell>
        <mxCell id="wwL8zT2_dl3lBCxODzwR-941" value="&quot;Reservasi berhasil dihapus&quot;" style="shape=parallelogram;html=1;strokeWidth=2;perimeter=parallelogramPerimeter;whiteSpace=wrap;rounded=1;arcSize=12;size=0.23;fillColor=#FFFFCC;" vertex="1" parent="WIyWlLk6GJQsqaUBKTNV-1">
          <mxGeometry x="1539" y="3250" width="340" height="40" as="geometry" />
        </mxCell>
        <mxCell id="wwL8zT2_dl3lBCxODzwR-1092" style="edgeStyle=orthogonalEdgeStyle;rounded=0;orthogonalLoop=1;jettySize=auto;html=1;exitX=1;exitY=0.5;exitDx=0;exitDy=0;" edge="1" parent="WIyWlLk6GJQsqaUBKTNV-1" source="wwL8zT2_dl3lBCxODzwR-1131" target="wwL8zT2_dl3lBCxODzwR-902">
          <mxGeometry relative="1" as="geometry">
            <mxPoint x="1370" y="2050" as="targetPoint" />
            <mxPoint x="1810" y="3170" as="sourcePoint" />
            <Array as="points">
              <mxPoint x="1920" y="3110" />
              <mxPoint x="1920" y="2070" />
            </Array>
          </mxGeometry>
        </mxCell>
        <mxCell id="wwL8zT2_dl3lBCxODzwR-1024" style="edgeStyle=orthogonalEdgeStyle;rounded=0;orthogonalLoop=1;jettySize=auto;html=1;" edge="1" parent="WIyWlLk6GJQsqaUBKTNV-1" source="wwL8zT2_dl3lBCxODzwR-945" target="wwL8zT2_dl3lBCxODzwR-846">
          <mxGeometry relative="1" as="geometry">
            <mxPoint x="1180" y="850" as="targetPoint" />
            <Array as="points">
              <mxPoint x="1980" y="3370" />
              <mxPoint x="1980" y="890" />
            </Array>
          </mxGeometry>
        </mxCell>
        <mxCell id="wwL8zT2_dl3lBCxODzwR-945" value="Terimakasih sudah melakukan reservasi di karaoke Bernadya.&quot;" style="shape=parallelogram;html=1;strokeWidth=2;perimeter=parallelogramPerimeter;whiteSpace=wrap;rounded=1;arcSize=12;size=0.23;fillColor=#FFFFCC;" vertex="1" parent="WIyWlLk6GJQsqaUBKTNV-1">
          <mxGeometry x="1300" y="3345" width="480" height="50" as="geometry" />
        </mxCell>
        <mxCell id="wwL8zT2_dl3lBCxODzwR-946" style="edgeStyle=orthogonalEdgeStyle;rounded=0;orthogonalLoop=1;jettySize=auto;html=1;entryX=0.579;entryY=0;entryDx=0;entryDy=0;entryPerimeter=0;" edge="1" parent="WIyWlLk6GJQsqaUBKTNV-1" source="wwL8zT2_dl3lBCxODzwR-894" target="wwL8zT2_dl3lBCxODzwR-900">
          <mxGeometry relative="1" as="geometry" />
        </mxCell>
        <mxCell id="wwL8zT2_dl3lBCxODzwR-1041" value="FALSE" style="edgeLabel;html=1;align=center;verticalAlign=middle;resizable=0;points=[];" vertex="1" connectable="0" parent="wwL8zT2_dl3lBCxODzwR-946">
          <mxGeometry x="-0.4557" y="-1" relative="1" as="geometry">
            <mxPoint as="offset" />
          </mxGeometry>
        </mxCell>
        <mxCell id="wwL8zT2_dl3lBCxODzwR-947" value="" style="edgeStyle=orthogonalEdgeStyle;rounded=0;orthogonalLoop=1;jettySize=auto;html=1;" edge="1" parent="WIyWlLk6GJQsqaUBKTNV-1" source="wwL8zT2_dl3lBCxODzwR-948" target="wwL8zT2_dl3lBCxODzwR-950">
          <mxGeometry relative="1" as="geometry" />
        </mxCell>
        <mxCell id="wwL8zT2_dl3lBCxODzwR-948" value="&quot;Nama tamu: &quot;" style="shape=parallelogram;html=1;strokeWidth=2;perimeter=parallelogramPerimeter;whiteSpace=wrap;rounded=1;arcSize=12;size=0.23;fillColor=#FFCCCC;" vertex="1" parent="WIyWlLk6GJQsqaUBKTNV-1">
          <mxGeometry x="760" y="2280" width="169" height="30" as="geometry" />
        </mxCell>
        <mxCell id="wwL8zT2_dl3lBCxODzwR-949" value="" style="edgeStyle=orthogonalEdgeStyle;rounded=0;orthogonalLoop=1;jettySize=auto;html=1;" edge="1" parent="WIyWlLk6GJQsqaUBKTNV-1" source="wwL8zT2_dl3lBCxODzwR-950" target="wwL8zT2_dl3lBCxODzwR-952">
          <mxGeometry relative="1" as="geometry" />
        </mxCell>
        <mxCell id="wwL8zT2_dl3lBCxODzwR-950" value="&quot;tanggal: &quot;" style="shape=parallelogram;html=1;strokeWidth=2;perimeter=parallelogramPerimeter;whiteSpace=wrap;rounded=1;arcSize=12;size=0.23;fillColor=#FFCCCC;" vertex="1" parent="WIyWlLk6GJQsqaUBKTNV-1">
          <mxGeometry x="760" y="2335" width="169" height="30" as="geometry" />
        </mxCell>
        <mxCell id="wwL8zT2_dl3lBCxODzwR-951" value="" style="edgeStyle=orthogonalEdgeStyle;rounded=0;orthogonalLoop=1;jettySize=auto;html=1;" edge="1" parent="WIyWlLk6GJQsqaUBKTNV-1" source="wwL8zT2_dl3lBCxODzwR-952" target="wwL8zT2_dl3lBCxODzwR-954">
          <mxGeometry relative="1" as="geometry" />
        </mxCell>
        <mxCell id="wwL8zT2_dl3lBCxODzwR-952" value="&quot;jam: &quot;" style="shape=parallelogram;html=1;strokeWidth=2;perimeter=parallelogramPerimeter;whiteSpace=wrap;rounded=1;arcSize=12;size=0.23;fillColor=#FFCCCC;" vertex="1" parent="WIyWlLk6GJQsqaUBKTNV-1">
          <mxGeometry x="760" y="2395" width="169" height="30" as="geometry" />
        </mxCell>
        <mxCell id="wwL8zT2_dl3lBCxODzwR-953" value="" style="edgeStyle=orthogonalEdgeStyle;rounded=0;orthogonalLoop=1;jettySize=auto;html=1;" edge="1" parent="WIyWlLk6GJQsqaUBKTNV-1" source="wwL8zT2_dl3lBCxODzwR-954" target="wwL8zT2_dl3lBCxODzwR-956">
          <mxGeometry relative="1" as="geometry" />
        </mxCell>
        <mxCell id="wwL8zT2_dl3lBCxODzwR-954" value="&quot;durasi: &quot;" style="shape=parallelogram;html=1;strokeWidth=2;perimeter=parallelogramPerimeter;whiteSpace=wrap;rounded=1;arcSize=12;size=0.23;fillColor=#FFCCCC;" vertex="1" parent="WIyWlLk6GJQsqaUBKTNV-1">
          <mxGeometry x="760" y="2455" width="169" height="30" as="geometry" />
        </mxCell>
        <mxCell id="wwL8zT2_dl3lBCxODzwR-955" value="" style="edgeStyle=orthogonalEdgeStyle;rounded=0;orthogonalLoop=1;jettySize=auto;html=1;" edge="1" parent="WIyWlLk6GJQsqaUBKTNV-1" source="wwL8zT2_dl3lBCxODzwR-956" target="wwL8zT2_dl3lBCxODzwR-958">
          <mxGeometry relative="1" as="geometry" />
        </mxCell>
        <mxCell id="wwL8zT2_dl3lBCxODzwR-956" value="&quot;room size: &quot;" style="shape=parallelogram;html=1;strokeWidth=2;perimeter=parallelogramPerimeter;whiteSpace=wrap;rounded=1;arcSize=12;size=0.23;fillColor=#FFCCCC;" vertex="1" parent="WIyWlLk6GJQsqaUBKTNV-1">
          <mxGeometry x="760" y="2515" width="169" height="30" as="geometry" />
        </mxCell>
        <mxCell id="wwL8zT2_dl3lBCxODzwR-957" value="" style="edgeStyle=orthogonalEdgeStyle;rounded=0;orthogonalLoop=1;jettySize=auto;html=1;" edge="1" parent="WIyWlLk6GJQsqaUBKTNV-1" source="wwL8zT2_dl3lBCxODzwR-958" target="wwL8zT2_dl3lBCxODzwR-968">
          <mxGeometry relative="1" as="geometry" />
        </mxCell>
        <mxCell id="wwL8zT2_dl3lBCxODzwR-958" value="&quot;status: dipesan &quot;" style="shape=parallelogram;html=1;strokeWidth=2;perimeter=parallelogramPerimeter;whiteSpace=wrap;rounded=1;arcSize=12;size=0.23;fillColor=#FFCCCC;" vertex="1" parent="WIyWlLk6GJQsqaUBKTNV-1">
          <mxGeometry x="760" y="2575" width="169" height="30" as="geometry" />
        </mxCell>
        <mxCell id="wwL8zT2_dl3lBCxODzwR-959" value="" style="edgeStyle=orthogonalEdgeStyle;rounded=0;orthogonalLoop=1;jettySize=auto;html=1;" edge="1" parent="WIyWlLk6GJQsqaUBKTNV-1" source="wwL8zT2_dl3lBCxODzwR-961" target="wwL8zT2_dl3lBCxODzwR-964">
          <mxGeometry relative="1" as="geometry" />
        </mxCell>
        <mxCell id="wwL8zT2_dl3lBCxODzwR-1118" value="TRUE" style="edgeLabel;html=1;align=center;verticalAlign=middle;resizable=0;points=[];" vertex="1" connectable="0" parent="wwL8zT2_dl3lBCxODzwR-959">
          <mxGeometry x="-0.5634" y="-1" relative="1" as="geometry">
            <mxPoint x="1" as="offset" />
          </mxGeometry>
        </mxCell>
        <mxCell id="wwL8zT2_dl3lBCxODzwR-960" value="" style="edgeStyle=orthogonalEdgeStyle;rounded=0;orthogonalLoop=1;jettySize=auto;html=1;" edge="1" parent="WIyWlLk6GJQsqaUBKTNV-1" source="wwL8zT2_dl3lBCxODzwR-961" target="wwL8zT2_dl3lBCxODzwR-963">
          <mxGeometry relative="1" as="geometry" />
        </mxCell>
        <mxCell id="wwL8zT2_dl3lBCxODzwR-1117" value="FALSE" style="edgeLabel;html=1;align=center;verticalAlign=middle;resizable=0;points=[];" vertex="1" connectable="0" parent="wwL8zT2_dl3lBCxODzwR-960">
          <mxGeometry x="-0.0364" y="-1" relative="1" as="geometry">
            <mxPoint as="offset" />
          </mxGeometry>
        </mxCell>
        <mxCell id="wwL8zT2_dl3lBCxODzwR-961" value="elif pilihan_pelanggan == 2" style="strokeWidth=2;html=1;shape=mxgraph.flowchart.decision;whiteSpace=wrap;fillColor=#CCCCFF;" vertex="1" parent="WIyWlLk6GJQsqaUBKTNV-1">
          <mxGeometry x="490" y="2765" width="170.51" height="100" as="geometry" />
        </mxCell>
        <mxCell id="wwL8zT2_dl3lBCxODzwR-962" value="" style="edgeStyle=orthogonalEdgeStyle;rounded=0;orthogonalLoop=1;jettySize=auto;html=1;" edge="1" parent="WIyWlLk6GJQsqaUBKTNV-1" source="wwL8zT2_dl3lBCxODzwR-963" target="wwL8zT2_dl3lBCxODzwR-965">
          <mxGeometry relative="1" as="geometry" />
        </mxCell>
        <mxCell id="wwL8zT2_dl3lBCxODzwR-1114" value="TRUE" style="edgeLabel;html=1;align=center;verticalAlign=middle;resizable=0;points=[];" vertex="1" connectable="0" parent="wwL8zT2_dl3lBCxODzwR-962">
          <mxGeometry x="-0.2541" y="-2" relative="1" as="geometry">
            <mxPoint as="offset" />
          </mxGeometry>
        </mxCell>
        <mxCell id="wwL8zT2_dl3lBCxODzwR-1038" value="" style="edgeStyle=orthogonalEdgeStyle;rounded=0;orthogonalLoop=1;jettySize=auto;html=1;" edge="1" parent="WIyWlLk6GJQsqaUBKTNV-1" source="wwL8zT2_dl3lBCxODzwR-963" target="wwL8zT2_dl3lBCxODzwR-1009">
          <mxGeometry relative="1" as="geometry" />
        </mxCell>
        <mxCell id="wwL8zT2_dl3lBCxODzwR-1116" value="FALSE" style="edgeLabel;html=1;align=center;verticalAlign=middle;resizable=0;points=[];" vertex="1" connectable="0" parent="wwL8zT2_dl3lBCxODzwR-1038">
          <mxGeometry x="-0.288" y="1" relative="1" as="geometry">
            <mxPoint as="offset" />
          </mxGeometry>
        </mxCell>
        <mxCell id="wwL8zT2_dl3lBCxODzwR-963" value="elif pilihan_pelanggan == 3" style="strokeWidth=2;html=1;shape=mxgraph.flowchart.decision;whiteSpace=wrap;fillColor=#CCCCFF;" vertex="1" parent="WIyWlLk6GJQsqaUBKTNV-1">
          <mxGeometry x="489.99999999999994" y="2947.5" width="170.51" height="100" as="geometry" />
        </mxCell>
        <mxCell id="wwL8zT2_dl3lBCxODzwR-1037" style="edgeStyle=orthogonalEdgeStyle;rounded=0;orthogonalLoop=1;jettySize=auto;html=1;" edge="1" parent="WIyWlLk6GJQsqaUBKTNV-1" source="wwL8zT2_dl3lBCxODzwR-964" target="wwL8zT2_dl3lBCxODzwR-900">
          <mxGeometry relative="1" as="geometry">
            <mxPoint x="1050" y="2045.428466796875" as="targetPoint" />
            <Array as="points">
              <mxPoint x="1051" y="2815" />
              <mxPoint x="1051" y="2045" />
            </Array>
          </mxGeometry>
        </mxCell>
        <mxCell id="wwL8zT2_dl3lBCxODzwR-964" value="&quot;Nama tamu: {reservasi[&#39;nama_tamu&#39;]}&lt;div&gt;Tanggal: {reservasi[&#39;tanggal&#39;]}&lt;/div&gt;&lt;div&gt;jam: {reservasi[&#39;jam&#39;]}&lt;/div&gt;&lt;div&gt;durasi: {reservasi[&#39;durasi&#39;]}&lt;/div&gt;&lt;div&gt;room_size: {reservasi[&#39;room_size&#39;]}&lt;/div&gt;&lt;div&gt;status: {[&#39;status&#39;]}&lt;/div&gt;" style="shape=parallelogram;html=1;strokeWidth=2;perimeter=parallelogramPerimeter;whiteSpace=wrap;rounded=1;arcSize=12;size=0.23;fillColor=#FFFFCC;" vertex="1" parent="WIyWlLk6GJQsqaUBKTNV-1">
          <mxGeometry x="680" y="2760" width="350" height="110" as="geometry" />
        </mxCell>
        <mxCell id="wwL8zT2_dl3lBCxODzwR-1039" style="edgeStyle=orthogonalEdgeStyle;rounded=0;orthogonalLoop=1;jettySize=auto;html=1;" edge="1" parent="WIyWlLk6GJQsqaUBKTNV-1" source="wwL8zT2_dl3lBCxODzwR-965" target="wwL8zT2_dl3lBCxODzwR-846">
          <mxGeometry relative="1" as="geometry">
            <mxPoint x="110" y="3280" as="targetPoint" />
            <Array as="points">
              <mxPoint x="1081" y="2998" />
              <mxPoint x="1081" y="3300" />
              <mxPoint x="200" y="3300" />
              <mxPoint x="200" y="890" />
            </Array>
          </mxGeometry>
        </mxCell>
        <mxCell id="wwL8zT2_dl3lBCxODzwR-965" value="&quot;Terimakasih sudah melakukan&lt;div&gt;&amp;nbsp;reservasi di karaoke Bernadya.&quot;&lt;/div&gt;" style="shape=parallelogram;html=1;strokeWidth=2;perimeter=parallelogramPerimeter;whiteSpace=wrap;rounded=1;arcSize=12;size=0.1388888888888889;fillColor=#FFFFCC;" vertex="1" parent="WIyWlLk6GJQsqaUBKTNV-1">
          <mxGeometry x="720" y="2960" width="270" height="72.5" as="geometry" />
        </mxCell>
        <mxCell id="wwL8zT2_dl3lBCxODzwR-966" value="&quot;Terimakasih sudah melakukan&lt;div&gt;&amp;nbsp;reservasi di karaoke Bernadya.&quot;&lt;/div&gt;" style="shape=parallelogram;html=1;strokeWidth=2;perimeter=parallelogramPerimeter;whiteSpace=wrap;rounded=1;arcSize=12;size=0.23;fillColor=#FFFFCC;" vertex="1" parent="WIyWlLk6GJQsqaUBKTNV-1">
          <mxGeometry x="555" y="3474.75" width="270" height="72.5" as="geometry" />
        </mxCell>
        <mxCell id="wwL8zT2_dl3lBCxODzwR-1033" style="edgeStyle=orthogonalEdgeStyle;rounded=0;orthogonalLoop=1;jettySize=auto;html=1;entryX=1;entryY=0.75;entryDx=0;entryDy=0;" edge="1" parent="WIyWlLk6GJQsqaUBKTNV-1" source="wwL8zT2_dl3lBCxODzwR-968" target="wwL8zT2_dl3lBCxODzwR-900">
          <mxGeometry relative="1" as="geometry">
            <mxPoint x="730" y="2100" as="targetPoint" />
            <Array as="points">
              <mxPoint x="1010" y="2655" />
              <mxPoint x="1010" y="2086" />
            </Array>
          </mxGeometry>
        </mxCell>
        <mxCell id="wwL8zT2_dl3lBCxODzwR-968" value="&quot;Reservasi berhasil ditambahkan.&quot;" style="shape=parallelogram;html=1;strokeWidth=2;perimeter=parallelogramPerimeter;whiteSpace=wrap;rounded=1;arcSize=12;size=0.23;fillColor=#FFFFCC;" vertex="1" parent="WIyWlLk6GJQsqaUBKTNV-1">
          <mxGeometry x="705" y="2640" width="279" height="30" as="geometry" />
        </mxCell>
        <mxCell id="wwL8zT2_dl3lBCxODzwR-974" value="" style="endArrow=classic;html=1;rounded=0;" edge="1" parent="WIyWlLk6GJQsqaUBKTNV-1">
          <mxGeometry width="50" height="50" relative="1" as="geometry">
            <mxPoint x="633" y="2103" as="sourcePoint" />
            <mxPoint x="670" y="2103" as="targetPoint" />
          </mxGeometry>
        </mxCell>
        <mxCell id="wwL8zT2_dl3lBCxODzwR-975" value="" style="endArrow=classic;html=1;rounded=0;" edge="1" parent="WIyWlLk6GJQsqaUBKTNV-1">
          <mxGeometry width="50" height="50" relative="1" as="geometry">
            <mxPoint x="470" y="2173" as="sourcePoint" />
            <mxPoint x="507" y="2173" as="targetPoint" />
          </mxGeometry>
        </mxCell>
        <mxCell id="wwL8zT2_dl3lBCxODzwR-976" value="" style="endArrow=classic;html=1;rounded=0;" edge="1" parent="WIyWlLk6GJQsqaUBKTNV-1">
          <mxGeometry width="50" height="50" relative="1" as="geometry">
            <mxPoint x="760" y="2280" as="sourcePoint" />
            <mxPoint x="797" y="2280" as="targetPoint" />
          </mxGeometry>
        </mxCell>
        <mxCell id="wwL8zT2_dl3lBCxODzwR-977" value="" style="endArrow=classic;html=1;rounded=0;entryX=0;entryY=0;entryDx=0;entryDy=0;" edge="1" parent="WIyWlLk6GJQsqaUBKTNV-1" target="wwL8zT2_dl3lBCxODzwR-950">
          <mxGeometry width="50" height="50" relative="1" as="geometry">
            <mxPoint x="760" y="2340" as="sourcePoint" />
            <mxPoint x="787" y="2330" as="targetPoint" />
            <Array as="points" />
          </mxGeometry>
        </mxCell>
        <mxCell id="wwL8zT2_dl3lBCxODzwR-978" value="" style="endArrow=classic;html=1;rounded=0;entryX=0;entryY=0;entryDx=0;entryDy=0;" edge="1" parent="WIyWlLk6GJQsqaUBKTNV-1">
          <mxGeometry width="50" height="50" relative="1" as="geometry">
            <mxPoint x="760" y="2400" as="sourcePoint" />
            <mxPoint x="792" y="2401" as="targetPoint" />
            <Array as="points" />
          </mxGeometry>
        </mxCell>
        <mxCell id="wwL8zT2_dl3lBCxODzwR-979" value="" style="endArrow=classic;html=1;rounded=0;entryX=0;entryY=0;entryDx=0;entryDy=0;" edge="1" parent="WIyWlLk6GJQsqaUBKTNV-1">
          <mxGeometry width="50" height="50" relative="1" as="geometry">
            <mxPoint x="760" y="2460" as="sourcePoint" />
            <mxPoint x="792" y="2461" as="targetPoint" />
            <Array as="points" />
          </mxGeometry>
        </mxCell>
        <mxCell id="wwL8zT2_dl3lBCxODzwR-980" value="" style="endArrow=classic;html=1;rounded=0;entryX=0;entryY=0;entryDx=0;entryDy=0;" edge="1" parent="WIyWlLk6GJQsqaUBKTNV-1">
          <mxGeometry width="50" height="50" relative="1" as="geometry">
            <mxPoint x="760" y="2520" as="sourcePoint" />
            <mxPoint x="792" y="2521" as="targetPoint" />
            <Array as="points" />
          </mxGeometry>
        </mxCell>
        <mxCell id="wwL8zT2_dl3lBCxODzwR-981" value="" style="endArrow=classic;html=1;rounded=0;entryX=0;entryY=0;entryDx=0;entryDy=0;" edge="1" parent="WIyWlLk6GJQsqaUBKTNV-1">
          <mxGeometry width="50" height="50" relative="1" as="geometry">
            <mxPoint x="760" y="2580" as="sourcePoint" />
            <mxPoint x="792" y="2581" as="targetPoint" />
            <Array as="points" />
          </mxGeometry>
        </mxCell>
        <mxCell id="wwL8zT2_dl3lBCxODzwR-982" value="" style="endArrow=classic;html=1;rounded=0;entryX=0;entryY=0;entryDx=0;entryDy=0;" edge="1" parent="WIyWlLk6GJQsqaUBKTNV-1">
          <mxGeometry width="50" height="50" relative="1" as="geometry">
            <mxPoint x="929" y="2666" as="sourcePoint" />
            <mxPoint x="961" y="2667" as="targetPoint" />
            <Array as="points" />
          </mxGeometry>
        </mxCell>
        <mxCell id="wwL8zT2_dl3lBCxODzwR-993" value="" style="endArrow=classic;html=1;rounded=0;" edge="1" parent="WIyWlLk6GJQsqaUBKTNV-1">
          <mxGeometry width="50" height="50" relative="1" as="geometry">
            <mxPoint x="1564" y="3170" as="sourcePoint" />
            <mxPoint x="1596" y="3170" as="targetPoint" />
            <Array as="points" />
          </mxGeometry>
        </mxCell>
        <mxCell id="wwL8zT2_dl3lBCxODzwR-994" value="" style="endArrow=classic;html=1;rounded=0;" edge="1" parent="WIyWlLk6GJQsqaUBKTNV-1">
          <mxGeometry width="50" height="50" relative="1" as="geometry">
            <mxPoint x="1808" y="3281" as="sourcePoint" />
            <mxPoint x="1840" y="3281" as="targetPoint" />
            <Array as="points" />
          </mxGeometry>
        </mxCell>
        <mxCell id="wwL8zT2_dl3lBCxODzwR-995" value="" style="endArrow=classic;html=1;rounded=0;" edge="1" parent="WIyWlLk6GJQsqaUBKTNV-1">
          <mxGeometry width="50" height="50" relative="1" as="geometry">
            <mxPoint x="963" y="2850" as="sourcePoint" />
            <mxPoint x="993" y="2850" as="targetPoint" />
            <Array as="points" />
          </mxGeometry>
        </mxCell>
        <mxCell id="wwL8zT2_dl3lBCxODzwR-996" value="" style="endArrow=classic;html=1;rounded=0;" edge="1" parent="WIyWlLk6GJQsqaUBKTNV-1">
          <mxGeometry width="50" height="50" relative="1" as="geometry">
            <mxPoint x="959" y="3019.3799999999997" as="sourcePoint" />
            <mxPoint x="989" y="3019.3799999999997" as="targetPoint" />
            <Array as="points" />
          </mxGeometry>
        </mxCell>
        <mxCell id="wwL8zT2_dl3lBCxODzwR-997" value="" style="endArrow=classic;html=1;rounded=0;" edge="1" parent="WIyWlLk6GJQsqaUBKTNV-1">
          <mxGeometry width="50" height="50" relative="1" as="geometry">
            <mxPoint x="772.96" y="3538" as="sourcePoint" />
            <mxPoint x="802.96" y="3538" as="targetPoint" />
            <Array as="points" />
          </mxGeometry>
        </mxCell>
        <mxCell id="wwL8zT2_dl3lBCxODzwR-998" value="" style="endArrow=classic;html=1;rounded=0;" edge="1" parent="WIyWlLk6GJQsqaUBKTNV-1">
          <mxGeometry width="50" height="50" relative="1" as="geometry">
            <mxPoint x="1683" y="3390" as="sourcePoint" />
            <mxPoint x="1715" y="3390" as="targetPoint" />
            <Array as="points" />
          </mxGeometry>
        </mxCell>
        <mxCell id="wwL8zT2_dl3lBCxODzwR-1006" value="" style="edgeStyle=orthogonalEdgeStyle;rounded=0;orthogonalLoop=1;jettySize=auto;html=1;" edge="1" parent="WIyWlLk6GJQsqaUBKTNV-1" source="wwL8zT2_dl3lBCxODzwR-1003" target="wwL8zT2_dl3lBCxODzwR-1004">
          <mxGeometry relative="1" as="geometry" />
        </mxCell>
        <mxCell id="wwL8zT2_dl3lBCxODzwR-1105" value="TRUE" style="edgeLabel;html=1;align=center;verticalAlign=middle;resizable=0;points=[];" vertex="1" connectable="0" parent="wwL8zT2_dl3lBCxODzwR-1006">
          <mxGeometry x="-0.0829" relative="1" as="geometry">
            <mxPoint x="-1" as="offset" />
          </mxGeometry>
        </mxCell>
        <mxCell id="wwL8zT2_dl3lBCxODzwR-1003" value="else" style="strokeWidth=2;html=1;shape=mxgraph.flowchart.decision;whiteSpace=wrap;fillColor=#CCCCFF;" vertex="1" parent="WIyWlLk6GJQsqaUBKTNV-1">
          <mxGeometry x="364" y="3613.75" width="100" height="100" as="geometry" />
        </mxCell>
        <mxCell id="wwL8zT2_dl3lBCxODzwR-1017" style="edgeStyle=orthogonalEdgeStyle;rounded=0;orthogonalLoop=1;jettySize=auto;html=1;entryX=0;entryY=0.25;entryDx=0;entryDy=0;" edge="1" parent="WIyWlLk6GJQsqaUBKTNV-1" source="wwL8zT2_dl3lBCxODzwR-1004" target="wwL8zT2_dl3lBCxODzwR-846">
          <mxGeometry relative="1" as="geometry">
            <mxPoint x="300" y="950" as="targetPoint" />
            <Array as="points">
              <mxPoint x="950" y="3664" />
              <mxPoint x="950" y="3950" />
              <mxPoint x="170" y="3950" />
              <mxPoint x="170" y="880" />
            </Array>
          </mxGeometry>
        </mxCell>
        <mxCell id="wwL8zT2_dl3lBCxODzwR-1004" value="&quot;pilihan tidak valid&quot;" style="shape=parallelogram;html=1;strokeWidth=2;perimeter=parallelogramPerimeter;whiteSpace=wrap;rounded=1;arcSize=12;size=0.23;fillColor=#FFFFCC;" vertex="1" parent="WIyWlLk6GJQsqaUBKTNV-1">
          <mxGeometry x="530" y="3627.5" width="270" height="72.5" as="geometry" />
        </mxCell>
        <mxCell id="wwL8zT2_dl3lBCxODzwR-1005" value="" style="endArrow=classic;html=1;rounded=0;" edge="1" parent="WIyWlLk6GJQsqaUBKTNV-1">
          <mxGeometry width="50" height="50" relative="1" as="geometry">
            <mxPoint x="756.96" y="3677" as="sourcePoint" />
            <mxPoint x="786.96" y="3677" as="targetPoint" />
            <Array as="points" />
          </mxGeometry>
        </mxCell>
        <mxCell id="wwL8zT2_dl3lBCxODzwR-1008" value="" style="edgeStyle=orthogonalEdgeStyle;rounded=0;orthogonalLoop=1;jettySize=auto;html=1;" edge="1" parent="WIyWlLk6GJQsqaUBKTNV-1" source="wwL8zT2_dl3lBCxODzwR-1009" target="wwL8zT2_dl3lBCxODzwR-1010">
          <mxGeometry relative="1" as="geometry" />
        </mxCell>
        <mxCell id="wwL8zT2_dl3lBCxODzwR-1113" value="TRUE" style="edgeLabel;html=1;align=center;verticalAlign=middle;resizable=0;points=[];" vertex="1" connectable="0" parent="wwL8zT2_dl3lBCxODzwR-1008">
          <mxGeometry x="-0.2763" y="-4" relative="1" as="geometry">
            <mxPoint x="-1" as="offset" />
          </mxGeometry>
        </mxCell>
        <mxCell id="wwL8zT2_dl3lBCxODzwR-1009" value="else" style="strokeWidth=2;html=1;shape=mxgraph.flowchart.decision;whiteSpace=wrap;fillColor=#CCCCFF;" vertex="1" parent="WIyWlLk6GJQsqaUBKTNV-1">
          <mxGeometry x="525.25" y="3110" width="100" height="100" as="geometry" />
        </mxCell>
        <mxCell id="wwL8zT2_dl3lBCxODzwR-1012" style="edgeStyle=orthogonalEdgeStyle;rounded=0;orthogonalLoop=1;jettySize=auto;html=1;" edge="1" parent="WIyWlLk6GJQsqaUBKTNV-1" source="wwL8zT2_dl3lBCxODzwR-1010" target="wwL8zT2_dl3lBCxODzwR-900">
          <mxGeometry relative="1" as="geometry">
            <mxPoint x="750" y="2110" as="targetPoint" />
            <Array as="points">
              <mxPoint x="1030" y="3160" />
              <mxPoint x="1030" y="2070" />
            </Array>
          </mxGeometry>
        </mxCell>
        <mxCell id="wwL8zT2_dl3lBCxODzwR-1010" value="&quot;pilihan tidak valid&quot;" style="shape=parallelogram;html=1;strokeWidth=2;perimeter=parallelogramPerimeter;whiteSpace=wrap;rounded=1;arcSize=12;size=0.23;fillColor=#FFFFCC;" vertex="1" parent="WIyWlLk6GJQsqaUBKTNV-1">
          <mxGeometry x="655" y="3123.75" width="270" height="72.5" as="geometry" />
        </mxCell>
        <mxCell id="wwL8zT2_dl3lBCxODzwR-1011" value="" style="endArrow=classic;html=1;rounded=0;" edge="1" parent="WIyWlLk6GJQsqaUBKTNV-1">
          <mxGeometry width="50" height="50" relative="1" as="geometry">
            <mxPoint x="877" y="3179.72" as="sourcePoint" />
            <mxPoint x="907" y="3179.72" as="targetPoint" />
            <Array as="points" />
          </mxGeometry>
        </mxCell>
        <mxCell id="wwL8zT2_dl3lBCxODzwR-1015" value="end" style="strokeWidth=2;html=1;shape=mxgraph.flowchart.terminator;whiteSpace=wrap;strokeColor=#006666;fillColor=#CCFFFF;" vertex="1" parent="WIyWlLk6GJQsqaUBKTNV-1">
          <mxGeometry x="1060" y="4020" width="100" height="60" as="geometry" />
        </mxCell>
        <mxCell id="wwL8zT2_dl3lBCxODzwR-1016" style="edgeStyle=orthogonalEdgeStyle;rounded=0;orthogonalLoop=1;jettySize=auto;html=1;entryX=0.5;entryY=0;entryDx=0;entryDy=0;entryPerimeter=0;" edge="1" parent="WIyWlLk6GJQsqaUBKTNV-1" source="wwL8zT2_dl3lBCxODzwR-966" target="wwL8zT2_dl3lBCxODzwR-1015">
          <mxGeometry relative="1" as="geometry" />
        </mxCell>
        <mxCell id="wwL8zT2_dl3lBCxODzwR-1032" style="edgeStyle=orthogonalEdgeStyle;rounded=0;orthogonalLoop=1;jettySize=auto;html=1;entryX=1;entryY=0.75;entryDx=0;entryDy=0;" edge="1" parent="WIyWlLk6GJQsqaUBKTNV-1" source="wwL8zT2_dl3lBCxODzwR-1020" target="wwL8zT2_dl3lBCxODzwR-846">
          <mxGeometry relative="1" as="geometry">
            <mxPoint x="1420" y="899.9999999999998" as="targetPoint" />
            <Array as="points">
              <mxPoint x="1440" y="1430" />
              <mxPoint x="1440" y="900" />
            </Array>
          </mxGeometry>
        </mxCell>
        <mxCell id="wwL8zT2_dl3lBCxODzwR-1020" value="&quot;akun {username} berhasil didaftarkan, silahkan lanjut login.&quot;" style="shape=parallelogram;html=1;strokeWidth=2;perimeter=parallelogramPerimeter;whiteSpace=wrap;rounded=1;arcSize=12;size=0.23;fillColor=#FFFFCC;" vertex="1" parent="WIyWlLk6GJQsqaUBKTNV-1">
          <mxGeometry x="687.5" y="1400" width="455" height="60" as="geometry" />
        </mxCell>
        <mxCell id="wwL8zT2_dl3lBCxODzwR-1026" value="" style="edgeStyle=orthogonalEdgeStyle;rounded=0;orthogonalLoop=1;jettySize=auto;html=1;" edge="1" parent="WIyWlLk6GJQsqaUBKTNV-1" source="wwL8zT2_dl3lBCxODzwR-1027" target="wwL8zT2_dl3lBCxODzwR-1028">
          <mxGeometry relative="1" as="geometry" />
        </mxCell>
        <mxCell id="wwL8zT2_dl3lBCxODzwR-1106" value="TRUE" style="edgeLabel;html=1;align=center;verticalAlign=middle;resizable=0;points=[];" vertex="1" connectable="0" parent="wwL8zT2_dl3lBCxODzwR-1026">
          <mxGeometry x="-0.1573" y="-2" relative="1" as="geometry">
            <mxPoint x="1" as="offset" />
          </mxGeometry>
        </mxCell>
        <mxCell id="wwL8zT2_dl3lBCxODzwR-1027" value="else" style="strokeWidth=2;html=1;shape=mxgraph.flowchart.decision;whiteSpace=wrap;fillColor=#CCCCFF;" vertex="1" parent="WIyWlLk6GJQsqaUBKTNV-1">
          <mxGeometry x="1155" y="3474.75" width="100" height="100" as="geometry" />
        </mxCell>
        <mxCell id="wwL8zT2_dl3lBCxODzwR-1096" style="edgeStyle=orthogonalEdgeStyle;rounded=0;orthogonalLoop=1;jettySize=auto;html=1;" edge="1" parent="WIyWlLk6GJQsqaUBKTNV-1" source="wwL8zT2_dl3lBCxODzwR-1028" target="wwL8zT2_dl3lBCxODzwR-902">
          <mxGeometry relative="1" as="geometry">
            <mxPoint x="1380" y="2050" as="targetPoint" />
            <Array as="points">
              <mxPoint x="1960" y="3525" />
              <mxPoint x="1960" y="2050" />
            </Array>
          </mxGeometry>
        </mxCell>
        <mxCell id="wwL8zT2_dl3lBCxODzwR-1028" value="&quot;pilihan tidak valid&quot;" style="shape=parallelogram;html=1;strokeWidth=2;perimeter=parallelogramPerimeter;whiteSpace=wrap;rounded=1;arcSize=12;size=0.23;fillColor=#FFFFCC;" vertex="1" parent="WIyWlLk6GJQsqaUBKTNV-1">
          <mxGeometry x="1326" y="3488.5" width="270" height="72.5" as="geometry" />
        </mxCell>
        <mxCell id="wwL8zT2_dl3lBCxODzwR-1029" value="" style="endArrow=classic;html=1;rounded=0;" edge="1" parent="WIyWlLk6GJQsqaUBKTNV-1">
          <mxGeometry width="50" height="50" relative="1" as="geometry">
            <mxPoint x="1552.96" y="3538" as="sourcePoint" />
            <mxPoint x="1582.96" y="3538" as="targetPoint" />
            <Array as="points" />
          </mxGeometry>
        </mxCell>
        <mxCell id="wwL8zT2_dl3lBCxODzwR-1066" value="" style="edgeStyle=orthogonalEdgeStyle;rounded=0;orthogonalLoop=1;jettySize=auto;html=1;" edge="1" parent="WIyWlLk6GJQsqaUBKTNV-1" source="wwL8zT2_dl3lBCxODzwR-1067" target="wwL8zT2_dl3lBCxODzwR-1069">
          <mxGeometry relative="1" as="geometry" />
        </mxCell>
        <mxCell id="wwL8zT2_dl3lBCxODzwR-1067" value="&quot;Nama tamu: &quot;" style="shape=parallelogram;html=1;strokeWidth=2;perimeter=parallelogramPerimeter;whiteSpace=wrap;rounded=1;arcSize=12;size=0.23;fillColor=#FFCCCC;" vertex="1" parent="WIyWlLk6GJQsqaUBKTNV-1">
          <mxGeometry x="1445" y="2280" width="169" height="30" as="geometry" />
        </mxCell>
        <mxCell id="wwL8zT2_dl3lBCxODzwR-1068" value="" style="edgeStyle=orthogonalEdgeStyle;rounded=0;orthogonalLoop=1;jettySize=auto;html=1;" edge="1" parent="WIyWlLk6GJQsqaUBKTNV-1" source="wwL8zT2_dl3lBCxODzwR-1069" target="wwL8zT2_dl3lBCxODzwR-1071">
          <mxGeometry relative="1" as="geometry" />
        </mxCell>
        <mxCell id="wwL8zT2_dl3lBCxODzwR-1069" value="&quot;tanggal: &quot;" style="shape=parallelogram;html=1;strokeWidth=2;perimeter=parallelogramPerimeter;whiteSpace=wrap;rounded=1;arcSize=12;size=0.23;fillColor=#FFCCCC;" vertex="1" parent="WIyWlLk6GJQsqaUBKTNV-1">
          <mxGeometry x="1445" y="2335" width="169" height="30" as="geometry" />
        </mxCell>
        <mxCell id="wwL8zT2_dl3lBCxODzwR-1070" value="" style="edgeStyle=orthogonalEdgeStyle;rounded=0;orthogonalLoop=1;jettySize=auto;html=1;" edge="1" parent="WIyWlLk6GJQsqaUBKTNV-1" source="wwL8zT2_dl3lBCxODzwR-1071" target="wwL8zT2_dl3lBCxODzwR-1073">
          <mxGeometry relative="1" as="geometry" />
        </mxCell>
        <mxCell id="wwL8zT2_dl3lBCxODzwR-1071" value="&quot;jam: &quot;" style="shape=parallelogram;html=1;strokeWidth=2;perimeter=parallelogramPerimeter;whiteSpace=wrap;rounded=1;arcSize=12;size=0.23;fillColor=#FFCCCC;" vertex="1" parent="WIyWlLk6GJQsqaUBKTNV-1">
          <mxGeometry x="1445" y="2395" width="169" height="30" as="geometry" />
        </mxCell>
        <mxCell id="wwL8zT2_dl3lBCxODzwR-1072" value="" style="edgeStyle=orthogonalEdgeStyle;rounded=0;orthogonalLoop=1;jettySize=auto;html=1;" edge="1" parent="WIyWlLk6GJQsqaUBKTNV-1" source="wwL8zT2_dl3lBCxODzwR-1073" target="wwL8zT2_dl3lBCxODzwR-1075">
          <mxGeometry relative="1" as="geometry" />
        </mxCell>
        <mxCell id="wwL8zT2_dl3lBCxODzwR-1073" value="&quot;durasi: &quot;" style="shape=parallelogram;html=1;strokeWidth=2;perimeter=parallelogramPerimeter;whiteSpace=wrap;rounded=1;arcSize=12;size=0.23;fillColor=#FFCCCC;" vertex="1" parent="WIyWlLk6GJQsqaUBKTNV-1">
          <mxGeometry x="1445" y="2455" width="169" height="30" as="geometry" />
        </mxCell>
        <mxCell id="wwL8zT2_dl3lBCxODzwR-1074" value="" style="edgeStyle=orthogonalEdgeStyle;rounded=0;orthogonalLoop=1;jettySize=auto;html=1;" edge="1" parent="WIyWlLk6GJQsqaUBKTNV-1" source="wwL8zT2_dl3lBCxODzwR-1075" target="wwL8zT2_dl3lBCxODzwR-1077">
          <mxGeometry relative="1" as="geometry" />
        </mxCell>
        <mxCell id="wwL8zT2_dl3lBCxODzwR-1075" value="&quot;room size: &quot;" style="shape=parallelogram;html=1;strokeWidth=2;perimeter=parallelogramPerimeter;whiteSpace=wrap;rounded=1;arcSize=12;size=0.23;fillColor=#FFCCCC;" vertex="1" parent="WIyWlLk6GJQsqaUBKTNV-1">
          <mxGeometry x="1445" y="2515" width="169" height="30" as="geometry" />
        </mxCell>
        <mxCell id="wwL8zT2_dl3lBCxODzwR-1076" value="" style="edgeStyle=orthogonalEdgeStyle;rounded=0;orthogonalLoop=1;jettySize=auto;html=1;" edge="1" parent="WIyWlLk6GJQsqaUBKTNV-1" source="wwL8zT2_dl3lBCxODzwR-1077" target="wwL8zT2_dl3lBCxODzwR-1078">
          <mxGeometry relative="1" as="geometry" />
        </mxCell>
        <mxCell id="wwL8zT2_dl3lBCxODzwR-1077" value="&quot;status: &quot;" style="shape=parallelogram;html=1;strokeWidth=2;perimeter=parallelogramPerimeter;whiteSpace=wrap;rounded=1;arcSize=12;size=0.23;fillColor=#FFCCCC;" vertex="1" parent="WIyWlLk6GJQsqaUBKTNV-1">
          <mxGeometry x="1445" y="2575" width="169" height="30" as="geometry" />
        </mxCell>
        <mxCell id="wwL8zT2_dl3lBCxODzwR-1094" style="edgeStyle=orthogonalEdgeStyle;rounded=0;orthogonalLoop=1;jettySize=auto;html=1;" edge="1" parent="WIyWlLk6GJQsqaUBKTNV-1" source="wwL8zT2_dl3lBCxODzwR-1078" target="wwL8zT2_dl3lBCxODzwR-902">
          <mxGeometry relative="1" as="geometry">
            <mxPoint x="1350" y="2090" as="targetPoint" />
            <Array as="points">
              <mxPoint x="1800" y="2640" />
              <mxPoint x="1800" y="2090" />
            </Array>
          </mxGeometry>
        </mxCell>
        <mxCell id="wwL8zT2_dl3lBCxODzwR-1078" value="&quot;Reservasi berhasil ditambahkan.&quot;" style="shape=parallelogram;html=1;strokeWidth=2;perimeter=parallelogramPerimeter;whiteSpace=wrap;rounded=1;arcSize=12;size=0.23;fillColor=#FFFFCC;" vertex="1" parent="WIyWlLk6GJQsqaUBKTNV-1">
          <mxGeometry x="1390" y="2625" width="279" height="30" as="geometry" />
        </mxCell>
        <mxCell id="wwL8zT2_dl3lBCxODzwR-1079" value="" style="endArrow=classic;html=1;rounded=0;" edge="1" parent="WIyWlLk6GJQsqaUBKTNV-1">
          <mxGeometry width="50" height="50" relative="1" as="geometry">
            <mxPoint x="1445" y="2460.81" as="sourcePoint" />
            <mxPoint x="1477" y="2460.81" as="targetPoint" />
            <Array as="points" />
          </mxGeometry>
        </mxCell>
        <mxCell id="wwL8zT2_dl3lBCxODzwR-1080" value="" style="endArrow=classic;html=1;rounded=0;" edge="1" parent="WIyWlLk6GJQsqaUBKTNV-1">
          <mxGeometry width="50" height="50" relative="1" as="geometry">
            <mxPoint x="1445" y="2399" as="sourcePoint" />
            <mxPoint x="1477" y="2399" as="targetPoint" />
            <Array as="points" />
          </mxGeometry>
        </mxCell>
        <mxCell id="wwL8zT2_dl3lBCxODzwR-1081" value="" style="endArrow=classic;html=1;rounded=0;" edge="1" parent="WIyWlLk6GJQsqaUBKTNV-1">
          <mxGeometry width="50" height="50" relative="1" as="geometry">
            <mxPoint x="1443" y="2340.81" as="sourcePoint" />
            <mxPoint x="1475" y="2340.81" as="targetPoint" />
            <Array as="points" />
          </mxGeometry>
        </mxCell>
        <mxCell id="wwL8zT2_dl3lBCxODzwR-1082" value="" style="endArrow=classic;html=1;rounded=0;" edge="1" parent="WIyWlLk6GJQsqaUBKTNV-1">
          <mxGeometry width="50" height="50" relative="1" as="geometry">
            <mxPoint x="1445" y="2284" as="sourcePoint" />
            <mxPoint x="1477" y="2284" as="targetPoint" />
            <Array as="points" />
          </mxGeometry>
        </mxCell>
        <mxCell id="wwL8zT2_dl3lBCxODzwR-1083" value="" style="endArrow=classic;html=1;rounded=0;" edge="1" parent="WIyWlLk6GJQsqaUBKTNV-1">
          <mxGeometry width="50" height="50" relative="1" as="geometry">
            <mxPoint x="1440" y="2523.81" as="sourcePoint" />
            <mxPoint x="1472" y="2523.81" as="targetPoint" />
            <Array as="points" />
          </mxGeometry>
        </mxCell>
        <mxCell id="wwL8zT2_dl3lBCxODzwR-1084" value="" style="endArrow=classic;html=1;rounded=0;" edge="1" parent="WIyWlLk6GJQsqaUBKTNV-1">
          <mxGeometry width="50" height="50" relative="1" as="geometry">
            <mxPoint x="1445" y="2580" as="sourcePoint" />
            <mxPoint x="1477" y="2580" as="targetPoint" />
            <Array as="points" />
          </mxGeometry>
        </mxCell>
        <mxCell id="wwL8zT2_dl3lBCxODzwR-1085" value="" style="endArrow=classic;html=1;rounded=0;" edge="1" parent="WIyWlLk6GJQsqaUBKTNV-1">
          <mxGeometry width="50" height="50" relative="1" as="geometry">
            <mxPoint x="1614" y="2649.81" as="sourcePoint" />
            <mxPoint x="1646" y="2649.81" as="targetPoint" />
            <Array as="points" />
          </mxGeometry>
        </mxCell>
        <mxCell id="wwL8zT2_dl3lBCxODzwR-1090" value="" style="endArrow=classic;html=1;rounded=0;" edge="1" parent="WIyWlLk6GJQsqaUBKTNV-1">
          <mxGeometry width="50" height="50" relative="1" as="geometry">
            <mxPoint x="1272" y="2111" as="sourcePoint" />
            <mxPoint x="1304" y="2111" as="targetPoint" />
            <Array as="points" />
          </mxGeometry>
        </mxCell>
        <mxCell id="wwL8zT2_dl3lBCxODzwR-1097" value="" style="edgeStyle=none;orthogonalLoop=1;jettySize=auto;html=1;rounded=0;" edge="1" parent="WIyWlLk6GJQsqaUBKTNV-1">
          <mxGeometry width="100" relative="1" as="geometry">
            <mxPoint x="1317" y="710" as="sourcePoint" />
            <mxPoint x="1367" y="710" as="targetPoint" />
            <Array as="points" />
          </mxGeometry>
        </mxCell>
        <mxCell id="wwL8zT2_dl3lBCxODzwR-1098" value="" style="edgeStyle=none;orthogonalLoop=1;jettySize=auto;html=1;rounded=0;" edge="1" parent="WIyWlLk6GJQsqaUBKTNV-1">
          <mxGeometry width="100" relative="1" as="geometry">
            <mxPoint x="1330" y="574" as="sourcePoint" />
            <mxPoint x="1380" y="574" as="targetPoint" />
            <Array as="points" />
          </mxGeometry>
        </mxCell>
        <mxCell id="wwL8zT2_dl3lBCxODzwR-1123" value="" style="endArrow=classic;html=1;rounded=0;" edge="1" parent="WIyWlLk6GJQsqaUBKTNV-1">
          <mxGeometry width="50" height="50" relative="1" as="geometry">
            <mxPoint x="1608" y="2810" as="sourcePoint" />
            <mxPoint x="1638" y="2810" as="targetPoint" />
            <Array as="points" />
          </mxGeometry>
        </mxCell>
        <mxCell id="wwL8zT2_dl3lBCxODzwR-1124" value="" style="endArrow=classic;html=1;rounded=0;" edge="1" parent="WIyWlLk6GJQsqaUBKTNV-1">
          <mxGeometry width="50" height="50" relative="1" as="geometry">
            <mxPoint x="1100" y="2174" as="sourcePoint" />
            <mxPoint x="1132" y="2174" as="targetPoint" />
            <Array as="points" />
          </mxGeometry>
        </mxCell>
        <mxCell id="wwL8zT2_dl3lBCxODzwR-1137" value="" style="edgeStyle=orthogonalEdgeStyle;rounded=0;orthogonalLoop=1;jettySize=auto;html=1;" edge="1" parent="WIyWlLk6GJQsqaUBKTNV-1" source="wwL8zT2_dl3lBCxODzwR-1125" target="wwL8zT2_dl3lBCxODzwR-1128">
          <mxGeometry relative="1" as="geometry" />
        </mxCell>
        <mxCell id="wwL8zT2_dl3lBCxODzwR-1125" value="&quot;Nama tamu: {reservasi[&#39;nama_tamu&#39;]}&lt;div&gt;Tanggal: {reservasi[&#39;tanggal&#39;]}&lt;/div&gt;&lt;div&gt;jam: {reservasi[&#39;jam&#39;]}&lt;/div&gt;&lt;div&gt;durasi: {reservasi[&#39;durasi&#39;]}&lt;/div&gt;&lt;div&gt;room_size: {reservasi[&#39;room_size&#39;]}&lt;/div&gt;&lt;div&gt;status: {[&#39;status&#39;]}&lt;/div&gt;" style="shape=parallelogram;html=1;strokeWidth=2;perimeter=parallelogramPerimeter;whiteSpace=wrap;rounded=1;arcSize=12;size=0.23;fillColor=#FFFFCC;" vertex="1" parent="WIyWlLk6GJQsqaUBKTNV-1">
          <mxGeometry x="1330" y="2910" width="180" height="59.07" as="geometry" />
        </mxCell>
        <mxCell id="wwL8zT2_dl3lBCxODzwR-1127" value="" style="edgeStyle=orthogonalEdgeStyle;rounded=0;orthogonalLoop=1;jettySize=auto;html=1;" edge="1" parent="WIyWlLk6GJQsqaUBKTNV-1" source="wwL8zT2_dl3lBCxODzwR-1128" target="wwL8zT2_dl3lBCxODzwR-1130">
          <mxGeometry relative="1" as="geometry" />
        </mxCell>
        <mxCell id="wwL8zT2_dl3lBCxODzwR-1128" value="&quot;pilih nomer reservasi yang ingin diperbarui: &quot;" style="shape=parallelogram;html=1;strokeWidth=2;perimeter=parallelogramPerimeter;whiteSpace=wrap;rounded=1;arcSize=12;size=0.23;fillColor=#FFCCCC;" vertex="1" parent="WIyWlLk6GJQsqaUBKTNV-1">
          <mxGeometry x="1539" y="2920" width="340" height="40" as="geometry" />
        </mxCell>
        <mxCell id="wwL8zT2_dl3lBCxODzwR-1129" value="" style="edgeStyle=orthogonalEdgeStyle;rounded=0;orthogonalLoop=1;jettySize=auto;html=1;" edge="1" parent="WIyWlLk6GJQsqaUBKTNV-1" source="wwL8zT2_dl3lBCxODzwR-1130" target="wwL8zT2_dl3lBCxODzwR-1131">
          <mxGeometry relative="1" as="geometry" />
        </mxCell>
        <mxCell id="wwL8zT2_dl3lBCxODzwR-1130" value="&quot;status reservasi (dipesan/selesai/dibatalkan): &quot;" style="shape=parallelogram;html=1;strokeWidth=2;perimeter=parallelogramPerimeter;whiteSpace=wrap;rounded=1;arcSize=12;size=0.23;fillColor=#FFCCCC;" vertex="1" parent="WIyWlLk6GJQsqaUBKTNV-1">
          <mxGeometry x="1529.5" y="3000" width="359" height="40" as="geometry" />
        </mxCell>
        <mxCell id="wwL8zT2_dl3lBCxODzwR-1131" value="&quot;Reservasi berhasil diperbarui&quot;" style="shape=parallelogram;html=1;strokeWidth=2;perimeter=parallelogramPerimeter;whiteSpace=wrap;rounded=1;arcSize=12;size=0.23;fillColor=#FFFFCC;" vertex="1" parent="WIyWlLk6GJQsqaUBKTNV-1">
          <mxGeometry x="1539" y="3083.75" width="340" height="40" as="geometry" />
        </mxCell>
        <mxCell id="wwL8zT2_dl3lBCxODzwR-1132" value="" style="endArrow=classic;html=1;rounded=0;" edge="1" parent="WIyWlLk6GJQsqaUBKTNV-1">
          <mxGeometry width="50" height="50" relative="1" as="geometry">
            <mxPoint x="1582" y="2923" as="sourcePoint" />
            <mxPoint x="1614" y="2923" as="targetPoint" />
            <Array as="points" />
          </mxGeometry>
        </mxCell>
        <mxCell id="wwL8zT2_dl3lBCxODzwR-1133" value="" style="endArrow=classic;html=1;rounded=0;" edge="1" parent="WIyWlLk6GJQsqaUBKTNV-1">
          <mxGeometry width="50" height="50" relative="1" as="geometry">
            <mxPoint x="1560" y="3010" as="sourcePoint" />
            <mxPoint x="1592" y="3010" as="targetPoint" />
            <Array as="points" />
          </mxGeometry>
        </mxCell>
        <mxCell id="wwL8zT2_dl3lBCxODzwR-1134" value="" style="endArrow=classic;html=1;rounded=0;" edge="1" parent="WIyWlLk6GJQsqaUBKTNV-1">
          <mxGeometry width="50" height="50" relative="1" as="geometry">
            <mxPoint x="1810" y="3120" as="sourcePoint" />
            <mxPoint x="1842" y="3120" as="targetPoint" />
            <Array as="points" />
          </mxGeometry>
        </mxCell>
        <mxCell id="wwL8zT2_dl3lBCxODzwR-1141" value="" style="endArrow=classic;html=1;rounded=0;" edge="1" parent="WIyWlLk6GJQsqaUBKTNV-1">
          <mxGeometry width="50" height="50" relative="1" as="geometry">
            <mxPoint x="1477" y="2959.29" as="sourcePoint" />
            <mxPoint x="1507" y="2959.29" as="targetPoint" />
            <Array as="points" />
          </mxGeometry>
        </mxCell>
        <mxCell id="wwL8zT2_dl3lBCxODzwR-1144" value="" style="edgeStyle=orthogonalEdgeStyle;rounded=0;orthogonalLoop=1;jettySize=auto;html=1;" edge="1" parent="WIyWlLk6GJQsqaUBKTNV-1" source="wwL8zT2_dl3lBCxODzwR-1142" target="wwL8zT2_dl3lBCxODzwR-939">
          <mxGeometry relative="1" as="geometry" />
        </mxCell>
        <mxCell id="wwL8zT2_dl3lBCxODzwR-1142" value="&quot;Nama tamu: {reservasi[&#39;nama_tamu&#39;]}&lt;div&gt;Tanggal: {reservasi[&#39;tanggal&#39;]}&lt;/div&gt;&lt;div&gt;jam: {reservasi[&#39;jam&#39;]}&lt;/div&gt;&lt;div&gt;durasi: {reservasi[&#39;durasi&#39;]}&lt;/div&gt;&lt;div&gt;room_size: {reservasi[&#39;room_size&#39;]}&lt;/div&gt;&lt;div&gt;status: {[&#39;status&#39;]}&lt;/div&gt;" style="shape=parallelogram;html=1;strokeWidth=2;perimeter=parallelogramPerimeter;whiteSpace=wrap;rounded=1;arcSize=12;size=0.23;fillColor=#FFFFCC;" vertex="1" parent="WIyWlLk6GJQsqaUBKTNV-1">
          <mxGeometry x="1310" y="3150.93" width="180" height="59.07" as="geometry" />
        </mxCell>
        <mxCell id="wwL8zT2_dl3lBCxODzwR-1146" value="" style="endArrow=classic;html=1;rounded=0;" edge="1" parent="WIyWlLk6GJQsqaUBKTNV-1">
          <mxGeometry width="50" height="50" relative="1" as="geometry">
            <mxPoint x="1458" y="3198.25" as="sourcePoint" />
            <mxPoint x="1488" y="3198.25" as="targetPoint" />
            <Array as="points" />
          </mxGeometry>
        </mxCell>
      </root>
    </mxGraphModel>
  </diagram>
</mxfile>
